<svg version="1.1" viewBox="0.0 0.0 100.0 100.0" fill="none" stroke="none" stroke-linecap="square" stroke-miterlimit="10" xmlns:xlink="http://www.w3.org/1999/xlink" xmlns="http://www.w3.org/2000/svg"><clipPath id="p.0"><path d="m0 0l100.0 0l0 100.0l-100.0 0l0 -100.0z" clip-rule="nonzero"/></clipPath><g clip-path="url(#p.0)"><path fill="#000000" fill-opacity="0.0" d="m0 0l100.0 0l0 100.0l-100.0 0z" fill-rule="evenodd"/><path fill="#000000" fill-opacity="0.0" d="m71.438995 53.39637c-12.421307 -12.37114 -31.587746 -13.067486 -43.630585 -1.5851707l22.190828 24.46091z" fill-rule="evenodd"/><path fill="#000000" fill-opacity="0.0" d="m71.438995 53.39637c-12.421307 -12.37114 -31.587746 -13.067486 -43.630585 -1.5851707" fill-rule="evenodd"/><path stroke="#d0cece" stroke-width="2.0" stroke-miterlimit="800.0" stroke-linecap="round" stroke-dasharray="6.0,8.0" d="m61.587772 46.54412l-0.16352463 -0.074653625c-0.11620712 -0.052238464 -0.23262787 -0.10375595 -0.34924316 -0.15455246c-3.7317734 -1.6255646 -7.6684113 -2.5135803 -11.593224 -2.6561775c-7.8496284 -0.28518677 -15.651951 2.4113045 -21.673372 8.152462" fill-rule="evenodd"/><path fill="#d0cece" stroke="#d0cece" stroke-width="2.0" stroke-linecap="butt" d="m59.701424 49.256054l9.337318 2.4707642l-5.564625 -7.8946266z" fill-rule="evenodd"/></g></svg>