<svg version="1.1" viewBox="0.0 0.0 116.41732283464567 107.46194225721784" fill="none" stroke="none" stroke-linecap="square" stroke-miterlimit="10" xmlns:xlink="http://www.w3.org/1999/xlink" xmlns="http://www.w3.org/2000/svg"><clipPath id="p.0"><path d="m0 0l116.41732 0l0 107.461945l-116.41732 0l0 -107.461945z" clip-rule="nonzero"/></clipPath><g clip-path="url(#p.0)"><path fill="#000000" fill-opacity="0.0" d="m0 0l116.41732 0l0 107.461945l-116.41732 0z" fill-rule="evenodd"/><path fill="#000000" fill-opacity="0.0" d="m93.78193 69.571785l-17.003143 0.3458252" fill-rule="evenodd"/><path stroke="#000000" stroke-width="2.0" stroke-miterlimit="800.0" stroke-linecap="round" d="m93.78193 69.571785l-17.003143 0.3458252" fill-rule="evenodd"/><path fill="#000000" fill-opacity="0.0" d="m38.614204 69.76468l-17.089605 -0.028823853" fill-rule="evenodd"/><path stroke="#000000" stroke-width="2.0" stroke-miterlimit="800.0" stroke-linecap="round" d="m38.614204 69.76468l-17.089605 -0.028823853" fill-rule="evenodd"/><path fill="#000000" fill-opacity="0.0" d="m36.86879 58.979946l0 0c2.9523888 1.4613342 4.940613 3.7162476 5.2020493 5.8998375l-8.979893 -1.2378273z" fill-rule="evenodd"/><path fill="#000000" fill-opacity="0.0" d="m36.86879 58.979946l0 0c2.9523888 1.4613342 4.940613 3.7162476 5.2020493 5.8998375" fill-rule="evenodd"/><path stroke="#4b4b4b" stroke-width="2.0" stroke-miterlimit="800.0" stroke-linecap="round" d="m36.86879 58.979946l0 0c2.9523888 1.4613342 4.940613 3.7162476 5.2020493 5.8998375" fill-rule="evenodd"/><path fill="#32a8aa" d="m55.919186 18.00363l0 0c0 -2.817174 2.2837677 -5.1009445 5.1009445 -5.1009445l0 0c1.3528519 0 2.650299 0.5374193 3.6069145 1.4940319c0.95661163 0.95661354 1.4940262 2.2540588 1.4940262 3.6069126l0 0c0 2.817175 -2.2837677 5.1009445 -5.1009407 5.1009445l0 0c-2.8171768 0 -5.1009445 -2.2837696 -5.1009445 -5.1009445z" fill-rule="evenodd"/><path stroke="#000000" stroke-width="1.3333333333333333" stroke-miterlimit="800.0" stroke-linecap="butt" d="m55.919186 18.00363l0 0c0 -2.817174 2.2837677 -5.1009445 5.1009445 -5.1009445l0 0c1.3528519 0 2.650299 0.5374193 3.6069145 1.4940319c0.95661163 0.95661354 1.4940262 2.2540588 1.4940262 3.6069126l0 0c0 2.817175 -2.2837677 5.1009445 -5.1009407 5.1009445l0 0c-2.8171768 0 -5.1009445 -2.2837696 -5.1009445 -5.1009445z" fill-rule="evenodd"/><path fill="#32a8aa" d="m56.224087 32.203278l0 0c0 -2.817175 2.2837715 -5.1009445 5.1009445 -5.1009445l0 0c1.3528557 0 2.650303 0.53741837 3.6069145 1.4940319c0.95661163 0.95661163 1.4940338 2.254057 1.4940338 3.6069126l0 0c0 2.817173 -2.2837753 5.1009445 -5.1009483 5.1009445l0 0c-2.817173 0 -5.1009445 -2.2837715 -5.1009445 -5.1009445z" fill-rule="evenodd"/><path stroke="#000000" stroke-width="1.3333333333333333" stroke-miterlimit="800.0" stroke-linecap="butt" d="m56.224087 32.203278l0 0c0 -2.817175 2.2837715 -5.1009445 5.1009445 -5.1009445l0 0c1.3528557 0 2.650303 0.53741837 3.6069145 1.4940319c0.95661163 0.95661163 1.4940338 2.254057 1.4940338 3.6069126l0 0c0 2.817173 -2.2837753 5.1009445 -5.1009483 5.1009445l0 0c-2.817173 0 -5.1009445 -2.2837715 -5.1009445 -5.1009445z" fill-rule="evenodd"/><path fill="#32a8aa" d="m56.224087 46.196293l0 0c0 -2.817173 2.2837715 -5.1009445 5.1009445 -5.1009445l0 0c1.3528557 0 2.650303 0.53741837 3.6069145 1.4940338c0.95661163 0.95661163 1.4940338 2.254055 1.4940338 3.6069107l0 0c0 2.817173 -2.2837753 5.1009445 -5.1009483 5.1009445l0 0c-2.817173 0 -5.1009445 -2.2837715 -5.1009445 -5.1009445z" fill-rule="evenodd"/><path stroke="#000000" stroke-width="1.3333333333333333" stroke-miterlimit="800.0" stroke-linecap="butt" d="m56.224087 46.196293l0 0c0 -2.817173 2.2837715 -5.1009445 5.1009445 -5.1009445l0 0c1.3528557 0 2.650303 0.53741837 3.6069145 1.4940338c0.95661163 0.95661163 1.4940338 2.254055 1.4940338 3.6069107l0 0c0 2.817173 -2.2837753 5.1009445 -5.1009483 5.1009445l0 0c-2.817173 0 -5.1009445 -2.2837715 -5.1009445 -5.1009445z" fill-rule="evenodd"/><path fill="#000000" fill-opacity="0.0" d="m23.68318 16.402395l0 31.853765" fill-rule="evenodd"/><path stroke="#4b4b4b" stroke-width="2.0" stroke-miterlimit="800.0" stroke-linecap="round" d="m23.68318 16.402395l0 31.853765" fill-rule="evenodd"/><path fill="#000000" fill-opacity="0.0" d="m61.202988 17.571693l0 30.105377" fill-rule="evenodd"/><path stroke="#4b4b4b" stroke-width="2.0" stroke-miterlimit="800.0" stroke-linecap="round" d="m61.202988 17.571693l0 30.105377" fill-rule="evenodd"/><path fill="#44a6bd" fill-opacity="0.349" d="m55.50685 57.78555l-15.299816 -11.527283l-15.919407 0l15.299816 11.527283z" fill-rule="evenodd"/><path stroke="#44a6bd" stroke-width="1.3333333333333333" stroke-linejoin="round" stroke-linecap="round" stroke-opacity="0.749" d="m55.50685 57.78555l-15.299816 -11.527283l-15.919407 0l15.299816 11.527283z" fill-rule="evenodd"/><path fill="#44a6bd" fill-opacity="0.349" d="m55.50685 43.632305l-15.299816 -11.527283l-15.919407 0l15.299816 11.527283z" fill-rule="evenodd"/><path stroke="#44a6bd" stroke-width="1.3333333333333333" stroke-linejoin="round" stroke-linecap="round" stroke-opacity="0.749" d="m55.50685 43.632305l-15.299816 -11.527283l-15.919407 0l15.299816 11.527283z" fill-rule="evenodd"/><path fill="#44a6bd" fill-opacity="0.349" d="m55.50685 29.5388l-15.299816 -11.527283l-15.919407 0l15.299816 11.527283z" fill-rule="evenodd"/><path stroke="#44a6bd" stroke-width="1.3333333333333333" stroke-linejoin="round" stroke-linecap="round" stroke-opacity="0.749" d="m55.50685 29.5388l-15.299816 -11.527283l-15.919407 0l15.299816 11.527283z" fill-rule="evenodd"/><path fill="#000000" fill-opacity="0.0" d="m23.92669 15.659069l0 0c2.3757076 -6.123062 6.1604614 -8.259158 9.511631 -5.3683186c3.3511696 2.8908405 5.5723534 10.207872 5.5821533 18.388758l-8.63262 0.05392456z" fill-rule="evenodd"/><path fill="#000000" fill-opacity="0.0" d="m23.92669 15.659069l0 0c2.3757076 -6.123062 6.1604614 -8.259158 9.511631 -5.3683186c3.3511696 2.8908405 5.5723534 10.207872 5.5821533 18.388758" fill-rule="evenodd"/><path stroke="#4b4b4b" stroke-width="2.0" stroke-miterlimit="800.0" stroke-linecap="round" d="m23.92669 15.659069l0 0c2.3757076 -6.123062 6.1604614 -8.259158 9.511631 -5.3683186c3.3511696 2.8908405 5.5723534 10.207872 5.5821533 18.388758" fill-rule="evenodd"/><path fill="#000000" fill-opacity="0.0" d="m39.02033 29.539171l0 28.338907" fill-rule="evenodd"/><path stroke="#4b4b4b" stroke-width="2.0" stroke-miterlimit="800.0" stroke-linecap="round" d="m39.02033 29.539171l0 28.338907" fill-rule="evenodd"/><path fill="#000000" fill-opacity="0.0" d="m61.509068 16.7853l0 0c2.291397 -6.420886 5.7460747 -8.942056 8.961552 -6.54c3.215477 2.4020548 5.6573105 9.328092 6.334198 17.966373l-8.773987 4.790552z" fill-rule="evenodd"/><path fill="#000000" fill-opacity="0.0" d="m61.509068 16.7853l0 0c2.291397 -6.420886 5.7460747 -8.942056 8.961552 -6.54c3.215477 2.4020548 5.6573105 9.328092 6.334198 17.966373" fill-rule="evenodd"/><path stroke="#4b4b4b" stroke-width="2.0" stroke-miterlimit="800.0" stroke-linecap="round" d="m61.509068 16.7853l0 0c2.291397 -6.420886 5.7460747 -8.942056 8.961552 -6.54c3.215477 2.4020548 5.6573105 9.328092 6.334198 17.966373" fill-rule="evenodd"/><path fill="#000000" fill-opacity="0.0" d="m76.93075 28.293358l0 29.491936" fill-rule="evenodd"/><path stroke="#4b4b4b" stroke-width="2.0" stroke-miterlimit="800.0" stroke-linecap="round" d="m76.93075 28.293358l0 29.491936" fill-rule="evenodd"/><path fill="#000000" fill-opacity="0.0" d="m76.964836 59.585358l0 0c-2.6224747 2.0013428 -4.1458817 4.598694 -3.9858932 6.7957764l8.588654 -2.9338913z" fill-rule="evenodd"/><path fill="#000000" fill-opacity="0.0" d="m76.964836 59.585358l0 0c-2.6224747 2.0013428 -4.1458817 4.598694 -3.9858932 6.7957764" fill-rule="evenodd"/><path stroke="#4b4b4b" stroke-width="2.0" stroke-miterlimit="800.0" stroke-linecap="round" d="m76.964836 59.585358l0 0c-2.6224747 2.0013428 -4.1458817 4.598694 -3.9858932 6.7957764" fill-rule="evenodd"/><path fill="#00a8aa" fill-opacity="0.349" d="m76.8715 57.78555l-15.299816 -11.527283l-15.919403 0l15.299816 11.527283z" fill-rule="evenodd"/><path stroke="#00a8aa" stroke-width="1.3333333333333333" stroke-linejoin="round" stroke-linecap="round" stroke-opacity="0.8" d="m76.8715 57.78555l-15.299816 -11.527283l-15.919403 0l15.299816 11.527283z" fill-rule="evenodd"/><path fill="#00a8aa" fill-opacity="0.349" d="m76.8715 43.632305l-15.299816 -11.527283l-15.919403 0l15.299816 11.527283z" fill-rule="evenodd"/><path stroke="#00a8aa" stroke-width="1.3333333333333333" stroke-linejoin="round" stroke-linecap="round" stroke-opacity="0.8" d="m76.8715 43.632305l-15.299816 -11.527283l-15.919403 0l15.299816 11.527283z" fill-rule="evenodd"/><path fill="#00a8aa" fill-opacity="0.349" d="m76.8715 29.5388l-15.299816 -11.527283l-15.919403 0l15.299816 11.527283z" fill-rule="evenodd"/><path stroke="#00a8aa" stroke-width="1.3333333333333333" stroke-linejoin="round" stroke-linecap="round" stroke-opacity="0.8" d="m76.8715 29.5388l-15.299816 -11.527283l-15.919403 0l15.299816 11.527283z" fill-rule="evenodd"/><path fill="#44a6bd" d="m18.327045 18.00363l0 0c0 -2.817174 2.2837715 -5.1009445 5.1009445 -5.1009445l0 0c1.3528557 0 2.650301 0.5374193 3.6069126 1.4940319c0.95661354 0.95661354 1.4940338 2.2540588 1.4940338 3.6069126l0 0c0 2.817175 -2.2837715 5.1009445 -5.1009464 5.1009445l0 0c-2.817173 0 -5.1009445 -2.2837696 -5.1009445 -5.1009445z" fill-rule="evenodd"/><path stroke="#000000" stroke-width="1.3333333333333333" stroke-miterlimit="800.0" stroke-linecap="butt" d="m18.327045 18.00363l0 0c0 -2.817174 2.2837715 -5.1009445 5.1009445 -5.1009445l0 0c1.3528557 0 2.650301 0.5374193 3.6069126 1.4940319c0.95661354 0.95661354 1.4940338 2.2540588 1.4940338 3.6069126l0 0c0 2.817175 -2.2837715 5.1009445 -5.1009464 5.1009445l0 0c-2.817173 0 -5.1009445 -2.2837696 -5.1009445 -5.1009445z" fill-rule="evenodd"/><path fill="#44a6bd" d="m18.32695 32.203278l0 0c0 -2.817175 2.2837696 -5.1009445 5.1009445 -5.1009445l0 0c1.3528538 0 2.650299 0.53741837 3.6069126 1.4940319c0.95661354 0.95661163 1.4940319 2.254057 1.4940319 3.6069126l0 0c0 2.817173 -2.2837696 5.1009445 -5.1009445 5.1009445l0 0c-2.817175 0 -5.1009445 -2.2837715 -5.1009445 -5.1009445z" fill-rule="evenodd"/><path stroke="#000000" stroke-width="1.3333333333333333" stroke-miterlimit="800.0" stroke-linecap="butt" d="m18.32695 32.203278l0 0c0 -2.817175 2.2837696 -5.1009445 5.1009445 -5.1009445l0 0c1.3528538 0 2.650299 0.53741837 3.6069126 1.4940319c0.95661354 0.95661163 1.4940319 2.254057 1.4940319 3.6069126l0 0c0 2.817173 -2.2837696 5.1009445 -5.1009445 5.1009445l0 0c-2.817175 0 -5.1009445 -2.2837715 -5.1009445 -5.1009445z" fill-rule="evenodd"/><path fill="#44a6bd" d="m18.32695 46.196293l0 0c0 -2.817173 2.2837696 -5.1009445 5.1009445 -5.1009445l0 0c1.3528538 0 2.650299 0.53741837 3.6069126 1.4940338c0.95661354 0.95661163 1.4940319 2.254055 1.4940319 3.6069107l0 0c0 2.817173 -2.2837696 5.1009445 -5.1009445 5.1009445l0 0c-2.817175 0 -5.1009445 -2.2837715 -5.1009445 -5.1009445z" fill-rule="evenodd"/><path stroke="#000000" stroke-width="1.3333333333333333" stroke-miterlimit="800.0" stroke-linecap="butt" d="m18.32695 46.196293l0 0c0 -2.817173 2.2837696 -5.1009445 5.1009445 -5.1009445l0 0c1.3528538 0 2.650299 0.53741837 3.6069126 1.4940338c0.95661354 0.95661163 1.4940319 2.254055 1.4940319 3.6069107l0 0c0 2.817173 -2.2837696 5.1009445 -5.1009445 5.1009445l0 0c-2.817175 0 -5.1009445 -2.2837715 -5.1009445 -5.1009445z" fill-rule="evenodd"/><path fill="#44a6bd" d="m33.632187 28.956156l0 0c0 -2.817173 2.2837715 -5.1009445 5.1009445 -5.1009445l0 0c1.3528557 0 2.650299 0.5374203 3.6069107 1.4940319c0.95661545 0.95661354 1.4940338 2.2540588 1.4940338 3.6069126l0 0c0 2.817175 -2.2837715 5.1009464 -5.1009445 5.1009464l0 0c-2.817173 0 -5.1009445 -2.2837715 -5.1009445 -5.1009464z" fill-rule="evenodd"/><path stroke="#000000" stroke-width="1.3333333333333333" stroke-miterlimit="800.0" stroke-linecap="butt" d="m33.632187 28.956156l0 0c0 -2.817173 2.2837715 -5.1009445 5.1009445 -5.1009445l0 0c1.3528557 0 2.650299 0.5374203 3.6069107 1.4940319c0.95661545 0.95661354 1.4940338 2.2540588 1.4940338 3.6069126l0 0c0 2.817175 -2.2837715 5.1009464 -5.1009445 5.1009464l0 0c-2.817173 0 -5.1009445 -2.2837715 -5.1009445 -5.1009464z" fill-rule="evenodd"/><path fill="#44a6bd" d="m33.937088 43.155804l0 0c0 -2.817173 2.2837715 -5.1009445 5.1009483 -5.1009445l0 0c1.3528519 0 2.650299 0.53741837 3.6069107 1.49403c0.95661163 0.95661545 1.4940338 2.2540588 1.4940338 3.6069145l0 0c0 2.817173 -2.2837715 5.1009445 -5.1009445 5.1009445l0 0c-2.8171768 0 -5.1009483 -2.2837715 -5.1009483 -5.1009445z" fill-rule="evenodd"/><path stroke="#000000" stroke-width="1.3333333333333333" stroke-miterlimit="800.0" stroke-linecap="butt" d="m33.937088 43.155804l0 0c0 -2.817173 2.2837715 -5.1009445 5.1009483 -5.1009445l0 0c1.3528519 0 2.650299 0.53741837 3.6069107 1.49403c0.95661163 0.95661545 1.4940338 2.2540588 1.4940338 3.6069145l0 0c0 2.817173 -2.2837715 5.1009445 -5.1009445 5.1009445l0 0c-2.8171768 0 -5.1009483 -2.2837715 -5.1009483 -5.1009445z" fill-rule="evenodd"/><path fill="#44a6bd" d="m33.937088 57.14882l0 0c0 -2.817173 2.2837715 -5.1009445 5.1009483 -5.1009445l0 0c1.3528519 0 2.650299 0.53741837 3.6069107 1.4940338c0.95661163 0.95661163 1.4940338 2.254055 1.4940338 3.6069107l0 0c0 2.817173 -2.2837715 5.1009445 -5.1009445 5.1009445l0 0c-2.8171768 0 -5.1009483 -2.2837715 -5.1009483 -5.1009445z" fill-rule="evenodd"/><path stroke="#000000" stroke-width="1.3333333333333333" stroke-miterlimit="800.0" stroke-linecap="butt" d="m33.937088 57.14882l0 0c0 -2.817173 2.2837715 -5.1009445 5.1009483 -5.1009445l0 0c1.3528519 0 2.650299 0.53741837 3.6069107 1.4940338c0.95661163 0.95661163 1.4940338 2.254055 1.4940338 3.6069107l0 0c0 2.817173 -2.2837715 5.1009445 -5.1009445 5.1009445l0 0c-2.8171768 0 -5.1009483 -2.2837715 -5.1009483 -5.1009445z" fill-rule="evenodd"/><path fill="#32a8aa" d="m71.22077 29.03512l0 0c0 -2.817175 2.2837677 -5.1009445 5.1009445 -5.1009445l0 0c1.3528519 0 2.650299 0.53741837 3.6069107 1.4940319c0.95661163 0.95661163 1.4940338 2.254057 1.4940338 3.6069126l0 0c0 2.817175 -2.2837753 5.1009464 -5.1009445 5.1009464l0 0c-2.8171768 0 -5.1009445 -2.2837715 -5.1009445 -5.1009464z" fill-rule="evenodd"/><path stroke="#000000" stroke-width="1.3333333333333333" stroke-miterlimit="800.0" stroke-linecap="butt" d="m71.22077 29.03512l0 0c0 -2.817175 2.2837677 -5.1009445 5.1009445 -5.1009445l0 0c1.3528519 0 2.650299 0.53741837 3.6069107 1.4940319c0.95661163 0.95661163 1.4940338 2.254057 1.4940338 3.6069126l0 0c0 2.817175 -2.2837753 5.1009464 -5.1009445 5.1009464l0 0c-2.8171768 0 -5.1009445 -2.2837715 -5.1009445 -5.1009464z" fill-rule="evenodd"/><path fill="#32a8aa" d="m71.52567 43.234768l0 0c0 -2.817173 2.2837753 -5.1009445 5.1009445 -5.1009445l0 0c1.3528595 0 2.650299 0.53741837 3.6069107 1.49403c0.95661926 0.95661545 1.4940338 2.2540588 1.4940338 3.6069145l0 0c0 2.817173 -2.2837677 5.1009445 -5.1009445 5.1009445l0 0c-2.8171692 0 -5.1009445 -2.2837715 -5.1009445 -5.1009445z" fill-rule="evenodd"/><path stroke="#000000" stroke-width="1.3333333333333333" stroke-miterlimit="800.0" stroke-linecap="butt" d="m71.52567 43.234768l0 0c0 -2.817173 2.2837753 -5.1009445 5.1009445 -5.1009445l0 0c1.3528595 0 2.650299 0.53741837 3.6069107 1.49403c0.95661926 0.95661545 1.4940338 2.2540588 1.4940338 3.6069145l0 0c0 2.817173 -2.2837677 5.1009445 -5.1009445 5.1009445l0 0c-2.8171692 0 -5.1009445 -2.2837715 -5.1009445 -5.1009445z" fill-rule="evenodd"/><path fill="#32a8aa" d="m71.52567 57.227783l0 0c0 -2.817173 2.2837753 -5.1009445 5.1009445 -5.1009445l0 0c1.3528595 0 2.650299 0.53741837 3.6069107 1.49403c0.95661926 0.95661545 1.4940338 2.2540588 1.4940338 3.6069145l0 0c0 2.817173 -2.2837677 5.1009445 -5.1009445 5.1009445l0 0c-2.8171692 0 -5.1009445 -2.2837715 -5.1009445 -5.1009445z" fill-rule="evenodd"/><path stroke="#000000" stroke-width="1.3333333333333333" stroke-miterlimit="800.0" stroke-linecap="butt" d="m71.52567 57.227783l0 0c0 -2.817173 2.2837753 -5.1009445 5.1009445 -5.1009445l0 0c1.3528595 0 2.650299 0.53741837 3.6069107 1.49403c0.95661926 0.95661545 1.4940338 2.2540588 1.4940338 3.6069145l0 0c0 2.817173 -2.2837677 5.1009445 -5.1009445 5.1009445l0 0c-2.8171692 0 -5.1009445 -2.2837715 -5.1009445 -5.1009445z" fill-rule="evenodd"/><path fill="#d0cece" d="m66.59668 69.753914l0 0c0 -2.8171692 2.2837753 -5.1009445 5.1009445 -5.1009445l0 0c1.3528595 0 2.650299 0.5374222 3.6069183 1.4940338c0.95661163 0.95661163 1.4940262 2.2540588 1.4940262 3.6069107l0 0c0 2.8171768 -2.2837677 5.1009445 -5.1009445 5.1009445l0 0c-2.8171692 0 -5.1009445 -2.2837677 -5.1009445 -5.1009445z" fill-rule="evenodd"/><path stroke="#000000" stroke-width="1.3333333333333333" stroke-miterlimit="800.0" stroke-linecap="butt" d="m66.59668 69.753914l0 0c0 -2.8171692 2.2837753 -5.1009445 5.1009445 -5.1009445l0 0c1.3528595 0 2.650299 0.5374222 3.6069183 1.4940338c0.95661163 0.95661163 1.4940262 2.2540588 1.4940262 3.6069107l0 0c0 2.8171768 -2.2837677 5.1009445 -5.1009445 5.1009445l0 0c-2.8171692 0 -5.1009445 -2.2837677 -5.1009445 -5.1009445z" fill-rule="evenodd"/><path fill="#000000" fill-opacity="0.0" d="m94.0901 87.58033l-74.46803 0.7204666" fill-rule="evenodd"/><path stroke="#000000" stroke-width="2.0" stroke-miterlimit="800.0" stroke-linecap="round" d="m94.0901 87.58033l-74.46803 0.7204666" fill-rule="evenodd"/><path fill="#4bd7d9" d="m71.13748 82.966515l0 0c2.8649216 0 5.187401 2.3224792 5.187401 5.187401l0 0c0 1.3757858 -0.54652405 2.695221 -1.5193558 3.6680527c-0.9728241 0.9728241 -2.2922592 1.5193481 -3.668045 1.5193481l0 0c-2.8649216 0 -5.187401 -2.3224716 -5.187401 -5.187401l0 0c0 -2.8649216 2.3224792 -5.187401 5.187401 -5.187401z" fill-rule="evenodd"/><path stroke="#000000" stroke-width="1.3333333333333333" stroke-miterlimit="800.0" stroke-linecap="butt" d="m71.13748 82.966515l0 0c2.8649216 0 5.187401 2.3224792 5.187401 5.187401l0 0c0 1.3757858 -0.54652405 2.695221 -1.5193558 3.6680527c-0.9728241 0.9728241 -2.2922592 1.5193481 -3.668045 1.5193481l0 0c-2.8649216 0 -5.187401 -2.3224716 -5.187401 -5.187401l0 0c0 -2.8649216 2.3224792 -5.187401 5.187401 -5.187401z" fill-rule="evenodd"/><path fill="#4bd7d9" d="m57.279438 82.966515l0 0c2.8649216 0 5.187401 2.3224792 5.187401 5.187401l0 0c0 1.3757858 -0.54652786 2.695221 -1.5193558 3.6680527c-0.9728279 0.9728241 -2.292263 1.5193481 -3.668045 1.5193481l0 0c-2.8649254 0 -5.1874046 -2.3224716 -5.1874046 -5.187401l0 0c0 -2.8649216 2.3224792 -5.187401 5.1874046 -5.187401z" fill-rule="evenodd"/><path stroke="#000000" stroke-width="1.3333333333333333" stroke-miterlimit="800.0" stroke-linecap="butt" d="m57.279438 82.966515l0 0c2.8649216 0 5.187401 2.3224792 5.187401 5.187401l0 0c0 1.3757858 -0.54652786 2.695221 -1.5193558 3.6680527c-0.9728279 0.9728241 -2.292263 1.5193481 -3.668045 1.5193481l0 0c-2.8649254 0 -5.1874046 -2.3224716 -5.1874046 -5.187401l0 0c0 -2.8649216 2.3224792 -5.187401 5.1874046 -5.187401z" fill-rule="evenodd"/><path fill="#4bd7d9" d="m43.62293 82.966515l0 0c2.8649216 0 5.187401 2.3224792 5.187401 5.187401l0 0c0 1.3757858 -0.54652786 2.695221 -1.519352 3.6680527c-0.9728279 0.9728241 -2.292263 1.5193481 -3.6680489 1.5193481l0 0c-2.8649216 0 -5.187401 -2.3224716 -5.187401 -5.187401l0 0c0 -2.8649216 2.3224792 -5.187401 5.187401 -5.187401z" fill-rule="evenodd"/><path stroke="#000000" stroke-width="1.3333333333333333" stroke-miterlimit="800.0" stroke-linecap="butt" d="m43.62293 82.966515l0 0c2.8649216 0 5.187401 2.3224792 5.187401 5.187401l0 0c0 1.3757858 -0.54652786 2.695221 -1.519352 3.6680527c-0.9728279 0.9728241 -2.292263 1.5193481 -3.6680489 1.5193481l0 0c-2.8649216 0 -5.187401 -2.3224716 -5.187401 -5.187401l0 0c0 -2.8649216 2.3224792 -5.187401 5.187401 -5.187401z" fill-rule="evenodd"/><path fill="#4bd7d9" d="m29.966421 82.966515l0 0c2.8649235 0 5.1874027 2.3224792 5.1874027 5.187401l0 0c0 1.3757858 -0.54652786 2.695221 -1.5193558 3.6680527c-0.9728241 0.9728241 -2.2922611 1.5193481 -3.668047 1.5193481l0 0c-2.8649216 0 -5.187401 -2.3224716 -5.187401 -5.187401l0 0c0 -2.8649216 2.3224792 -5.187401 5.187401 -5.187401z" fill-rule="evenodd"/><path stroke="#000000" stroke-width="1.3333333333333333" stroke-miterlimit="800.0" stroke-linecap="butt" d="m29.966421 82.966515l0 0c2.8649235 0 5.1874027 2.3224792 5.1874027 5.187401l0 0c0 1.3757858 -0.54652786 2.695221 -1.5193558 3.6680527c-0.9728241 0.9728241 -2.2922611 1.5193481 -3.668047 1.5193481l0 0c-2.8649216 0 -5.187401 -2.3224716 -5.187401 -5.187401l0 0c0 -2.8649216 2.3224792 -5.187401 5.187401 -5.187401z" fill-rule="evenodd"/><path fill="#4bd7d9" d="m16.089931 82.966515l0 0c2.8649216 0 5.187401 2.3224792 5.187401 5.187401l0 0c0 1.3757858 -0.54652786 2.695221 -1.5193539 3.6680527c-0.9728279 0.9728241 -2.292263 1.5193481 -3.668047 1.5193481l0 0c-2.8649235 0 -5.1874027 -2.3224716 -5.1874027 -5.187401l0 0c0 -2.8649216 2.3224792 -5.187401 5.1874027 -5.187401z" fill-rule="evenodd"/><path stroke="#000000" stroke-width="1.3333333333333333" stroke-miterlimit="800.0" stroke-linecap="butt" d="m16.089931 82.966515l0 0c2.8649216 0 5.187401 2.3224792 5.187401 5.187401l0 0c0 1.3757858 -0.54652786 2.695221 -1.5193539 3.6680527c-0.9728279 0.9728241 -2.292263 1.5193481 -3.668047 1.5193481l0 0c-2.8649235 0 -5.1874027 -2.3224716 -5.1874027 -5.187401l0 0c0 -2.8649216 2.3224792 -5.187401 5.1874027 -5.187401z" fill-rule="evenodd"/><path fill="#4bd7d9" d="m98.85358 82.966515l0 0c2.8649216 0 5.187401 2.3224792 5.187401 5.187401l0 0c0 1.3757858 -0.54652405 2.695221 -1.5193558 3.6680527c-0.9728241 0.9728241 -2.2922592 1.5193481 -3.668045 1.5193481l0 0c-2.8649216 0 -5.187401 -2.3224716 -5.187401 -5.187401l0 0c0 -2.8649216 2.3224792 -5.187401 5.187401 -5.187401z" fill-rule="evenodd"/><path stroke="#000000" stroke-width="1.3333333333333333" stroke-miterlimit="800.0" stroke-linecap="butt" d="m98.85358 82.966515l0 0c2.8649216 0 5.187401 2.3224792 5.187401 5.187401l0 0c0 1.3757858 -0.54652405 2.695221 -1.5193558 3.6680527c-0.9728241 0.9728241 -2.2922592 1.5193481 -3.668045 1.5193481l0 0c-2.8649216 0 -5.187401 -2.3224716 -5.187401 -5.187401l0 0c0 -2.8649216 2.3224792 -5.187401 5.187401 -5.187401z" fill-rule="evenodd"/><path fill="#4bd7d9" d="m84.99553 82.966515l0 0c2.8649216 0 5.187401 2.3224792 5.187401 5.187401l0 0c0 1.3757858 -0.54652405 2.695221 -1.5193558 3.6680527c-0.9728241 0.9728241 -2.2922592 1.5193481 -3.668045 1.5193481l0 0c-2.8649216 0 -5.187401 -2.3224716 -5.187401 -5.187401l0 0c0 -2.8649216 2.3224792 -5.187401 5.187401 -5.187401z" fill-rule="evenodd"/><path stroke="#000000" stroke-width="1.3333333333333333" stroke-miterlimit="800.0" stroke-linecap="butt" d="m84.99553 82.966515l0 0c2.8649216 0 5.187401 2.3224792 5.187401 5.187401l0 0c0 1.3757858 -0.54652405 2.695221 -1.5193558 3.6680527c-0.9728241 0.9728241 -2.2922592 1.5193481 -3.668045 1.5193481l0 0c-2.8649216 0 -5.187401 -2.3224716 -5.187401 -5.187401l0 0c0 -2.8649216 2.3224792 -5.187401 5.187401 -5.187401z" fill-rule="evenodd"/><path fill="#d0cece" d="m38.614204 69.753914l0 0c0 -2.8171692 2.2837715 -5.1009445 5.1009445 -5.1009445l0 0c1.3528557 0 2.650299 0.5374222 3.6069145 1.4940338c0.95661163 0.95661163 1.49403 2.2540588 1.49403 3.6069107l0 0c0 2.8171768 -2.2837715 5.1009445 -5.1009445 5.1009445l0 0c-2.817173 0 -5.1009445 -2.2837677 -5.1009445 -5.1009445z" fill-rule="evenodd"/><path stroke="#000000" stroke-width="1.3333333333333333" stroke-miterlimit="800.0" stroke-linecap="butt" d="m38.614204 69.753914l0 0c0 -2.8171692 2.2837715 -5.1009445 5.1009445 -5.1009445l0 0c1.3528557 0 2.650299 0.5374222 3.6069145 1.4940338c0.95661163 0.95661163 1.49403 2.2540588 1.49403 3.6069107l0 0c0 2.8171768 -2.2837715 5.1009445 -5.1009445 5.1009445l0 0c-2.817173 0 -5.1009445 -2.2837677 -5.1009445 -5.1009445z" fill-rule="evenodd"/><path fill="#d0cece" d="m79.98681 69.753914l0 0c0 -2.8171692 2.2837677 -5.1009445 5.1009445 -5.1009445l0 0c1.3528519 0 2.650299 0.5374222 3.6069107 1.4940338c0.95661163 0.95661163 1.4940338 2.2540588 1.4940338 3.6069107l0 0c0 2.8171768 -2.2837753 5.1009445 -5.1009445 5.1009445l0 0c-2.8171768 0 -5.1009445 -2.2837677 -5.1009445 -5.1009445z" fill-rule="evenodd"/><path stroke="#000000" stroke-width="1.3333333333333333" stroke-miterlimit="800.0" stroke-linecap="butt" d="m79.98681 69.753914l0 0c0 -2.8171692 2.2837677 -5.1009445 5.1009445 -5.1009445l0 0c1.3528519 0 2.650299 0.5374222 3.6069107 1.4940338c0.95661163 0.95661163 1.4940338 2.2540588 1.4940338 3.6069107l0 0c0 2.8171768 -2.2837753 5.1009445 -5.1009445 5.1009445l0 0c-2.8171768 0 -5.1009445 -2.2837677 -5.1009445 -5.1009445z" fill-rule="evenodd"/><path fill="#d0cece" d="m93.78193 69.753914l0 0c0 -2.8171692 2.2837753 -5.1009445 5.1009445 -5.1009445l0 0c1.3528595 0 2.6503067 0.5374222 3.6069183 1.4940338c0.95661163 0.95661163 1.4940338 2.2540588 1.4940338 3.6069107l0 0c0 2.8171768 -2.2837753 5.1009445 -5.100952 5.1009445l0 0c-2.8171692 0 -5.1009445 -2.2837677 -5.1009445 -5.1009445z" fill-rule="evenodd"/><path stroke="#000000" stroke-width="1.3333333333333333" stroke-miterlimit="800.0" stroke-linecap="butt" d="m93.78193 69.753914l0 0c0 -2.8171692 2.2837753 -5.1009445 5.1009445 -5.1009445l0 0c1.3528595 0 2.6503067 0.5374222 3.6069183 1.4940338c0.95661163 0.95661163 1.4940338 2.2540588 1.4940338 3.6069107l0 0c0 2.8171768 -2.2837753 5.1009445 -5.100952 5.1009445l0 0c-2.8171692 0 -5.1009445 -2.2837677 -5.1009445 -5.1009445z" fill-rule="evenodd"/><path fill="#d0cece" d="m24.96471 69.753914l0 0c0 -2.8171692 2.2837715 -5.1009445 5.1009445 -5.1009445l0 0c1.3528557 0 2.650299 0.5374222 3.6069145 1.4940338c0.95661163 0.95661163 1.49403 2.2540588 1.49403 3.6069107l0 0c0 2.8171768 -2.2837715 5.1009445 -5.1009445 5.1009445l0 0c-2.817173 0 -5.1009445 -2.2837677 -5.1009445 -5.1009445z" fill-rule="evenodd"/><path stroke="#000000" stroke-width="1.3333333333333333" stroke-miterlimit="800.0" stroke-linecap="butt" d="m24.96471 69.753914l0 0c0 -2.8171692 2.2837715 -5.1009445 5.1009445 -5.1009445l0 0c1.3528557 0 2.650299 0.5374222 3.6069145 1.4940338c0.95661163 0.95661163 1.49403 2.2540588 1.49403 3.6069107l0 0c0 2.8171768 -2.2837715 5.1009445 -5.1009445 5.1009445l0 0c-2.817173 0 -5.1009445 -2.2837677 -5.1009445 -5.1009445z" fill-rule="evenodd"/><path fill="#d0cece" d="m11.315216 69.753914l0 0c0 -2.8171692 2.2837706 -5.1009445 5.1009445 -5.1009445l0 0c1.3528557 0 2.650301 0.5374222 3.6069126 1.4940338c0.95661354 0.95661163 1.4940319 2.2540588 1.4940319 3.6069107l0 0c0 2.8171768 -2.2837696 5.1009445 -5.1009445 5.1009445l0 0c-2.817174 0 -5.1009445 -2.2837677 -5.1009445 -5.1009445z" fill-rule="evenodd"/><path stroke="#000000" stroke-width="1.3333333333333333" stroke-miterlimit="800.0" stroke-linecap="butt" d="m11.315216 69.753914l0 0c0 -2.8171692 2.2837706 -5.1009445 5.1009445 -5.1009445l0 0c1.3528557 0 2.650301 0.5374222 3.6069126 1.4940338c0.95661354 0.95661163 1.4940319 2.2540588 1.4940319 3.6069107l0 0c0 2.8171768 -2.2837696 5.1009445 -5.1009445 5.1009445l0 0c-2.817174 0 -5.1009445 -2.2837677 -5.1009445 -5.1009445z" fill-rule="evenodd"/><path fill="#000000" fill-opacity="0.0" d="m15.7783985 76.93011l0 3.4582748" fill-rule="evenodd"/><path stroke="#000000" stroke-width="1.6666666666666667" stroke-miterlimit="800.0" stroke-linecap="round" d="m15.7783985 76.93011l0 3.4582748" fill-rule="evenodd"/><path fill="#000000" fill-opacity="0.0" d="m30.106867 76.93011l0 3.4582748" fill-rule="evenodd"/><path stroke="#000000" stroke-width="1.6666666666666667" stroke-miterlimit="800.0" stroke-linecap="round" d="m30.106867 76.93011l0 3.4582748" fill-rule="evenodd"/><path fill="#000000" fill-opacity="0.0" d="m43.81246 76.93011l0 3.4582748" fill-rule="evenodd"/><path stroke="#000000" stroke-width="1.6666666666666667" stroke-miterlimit="800.0" stroke-linecap="round" d="m43.81246 76.93011l0 3.4582748" fill-rule="evenodd"/><path fill="#000000" fill-opacity="0.0" d="m71.22394 76.93011l0 3.4582748" fill-rule="evenodd"/><path stroke="#000000" stroke-width="1.6666666666666667" stroke-miterlimit="800.0" stroke-linecap="round" d="m71.22394 76.93011l0 3.4582748" fill-rule="evenodd"/><path fill="#000000" fill-opacity="0.0" d="m84.929634 76.93011l0 3.4582748" fill-rule="evenodd"/><path stroke="#000000" stroke-width="1.6666666666666667" stroke-miterlimit="800.0" stroke-linecap="round" d="m84.929634 76.93011l0 3.4582748" fill-rule="evenodd"/><path fill="#000000" fill-opacity="0.0" d="m98.63532 76.93011l0 3.4582748" fill-rule="evenodd"/><path stroke="#000000" stroke-width="1.6666666666666667" stroke-miterlimit="800.0" stroke-linecap="round" d="m98.63532 76.93011l0 3.4582748" fill-rule="evenodd"/></g></svg>