<svg version="1.1" viewBox="0.0 0.0 162.68766404199476 162.68766404199476" fill="none" stroke="none" stroke-linecap="square" stroke-miterlimit="10" xmlns:xlink="http://www.w3.org/1999/xlink" xmlns="http://www.w3.org/2000/svg"><clipPath id="p.0"><path d="m0 0l162.68767 0l0 162.68767l-162.68767 0l0 -162.68767z" clip-rule="nonzero"/></clipPath><g clip-path="url(#p.0)"><path fill="#000000" fill-opacity="0.0" d="m0 0l162.68767 0l0 162.68767l-162.68767 0z" fill-rule="evenodd"/><path fill="#000000" fill-opacity="0.0" d="m86.17885 64.721725l0 0c-2.7714233 4.3477707 -7.5880737 6.9600906 -12.743805 6.911606l0.14053345 -14.945358z" fill-rule="evenodd"/><path fill="#000000" fill-opacity="0.0" d="m86.17885 64.721725l0 0c-2.7714233 4.3477707 -7.5880737 6.9600906 -12.743805 6.911606" fill-rule="evenodd"/><path stroke="#000000" stroke-width="2.0" stroke-miterlimit="800.0" stroke-linecap="butt" d="m86.17885 64.721725l0 0c-2.7714233 4.3477707 -7.5880737 6.9600906 -12.743805 6.911606" fill-rule="evenodd"/><path fill="#000000" fill-opacity="0.0" d="m115.975075 135.68353l4.596939 -2.6512146" fill-rule="evenodd"/><path stroke="#000000" stroke-width="1.6666666666666667" stroke-miterlimit="800.0" stroke-linecap="round" d="m115.975075 135.68353l4.596939 -2.6512146" fill-rule="evenodd"/><path fill="#000000" fill-opacity="0.0" d="m109.53867 124.5234l4.596939 -2.6511993" fill-rule="evenodd"/><path stroke="#000000" stroke-width="1.6666666666666667" stroke-miterlimit="800.0" stroke-linecap="round" d="m109.53867 124.5234l4.596939 -2.6511993" fill-rule="evenodd"/><path fill="#000000" fill-opacity="0.0" d="m103.46825 114.07987l4.596939 -2.6511993" fill-rule="evenodd"/><path stroke="#000000" stroke-width="1.6666666666666667" stroke-miterlimit="800.0" stroke-linecap="round" d="m103.46825 114.07987l4.596939 -2.6511993" fill-rule="evenodd"/><path fill="#000000" fill-opacity="0.0" d="m97.177475 103.17227l4.5969467 -2.651207" fill-rule="evenodd"/><path stroke="#000000" stroke-width="1.6666666666666667" stroke-miterlimit="800.0" stroke-linecap="round" d="m97.177475 103.17227l4.5969467 -2.651207" fill-rule="evenodd"/><path fill="#000000" fill-opacity="0.0" d="m90.922226 92.244225l4.596939 -2.651207" fill-rule="evenodd"/><path stroke="#000000" stroke-width="1.6666666666666667" stroke-miterlimit="800.0" stroke-linecap="round" d="m90.922226 92.244225l4.596939 -2.651207" fill-rule="evenodd"/><path fill="#000000" fill-opacity="0.0" d="m101.26082 85.21629l0 0c-0.9425888 -3.6615524 -0.46242523 -7.544281 1.34375 -10.865898l13.130363 7.139824z" fill-rule="evenodd"/><path fill="#000000" fill-opacity="0.0" d="m101.26082 85.21629l0 0c-0.9425888 -3.6615524 -0.46242523 -7.544281 1.34375 -10.865898" fill-rule="evenodd"/><path stroke="#000000" stroke-width="2.0" stroke-miterlimit="800.0" stroke-linecap="butt" d="m101.26082 85.21629l0 0c-0.9425888 -3.6615524 -0.46242523 -7.544281 1.34375 -10.865898" fill-rule="evenodd"/><path fill="#000000" fill-opacity="0.0" d="m126.29526 129.7169l-23.573952 -40.87503" fill-rule="evenodd"/><path stroke="#000000" stroke-width="2.0" stroke-miterlimit="800.0" stroke-linecap="round" d="m126.29526 129.7169l-23.573952 -40.87503" fill-rule="evenodd"/><path fill="#d0cece" d="m130.22514 127.46231l0 0c1.2509613 2.1690521 0.5066986 4.941513 -1.6623535 6.1924744l0 0c-1.0416107 0.60072327 -2.2791977 0.7630768 -3.4405136 0.45132446c-1.1613159 -0.31175232 -2.1512222 -1.072052 -2.7519531 -2.113678l0 0c-1.2509613 -2.1690369 -0.5066986 -4.9415054 1.6623459 -6.1924667l0 0c2.1690445 -1.2509613 4.941513 -0.50670624 6.1924744 1.6623459z" fill-rule="evenodd"/><path stroke="#000000" stroke-width="1.3333333333333333" stroke-miterlimit="800.0" stroke-linecap="butt" d="m130.22514 127.46231l0 0c1.2509613 2.1690521 0.5066986 4.941513 -1.6623535 6.1924744l0 0c-1.0416107 0.60072327 -2.2791977 0.7630768 -3.4405136 0.45132446c-1.1613159 -0.31175232 -2.1512222 -1.072052 -2.7519531 -2.113678l0 0c-1.2509613 -2.1690369 -0.5066986 -4.9415054 1.6623459 -6.1924667l0 0c2.1690445 -1.2509613 4.941513 -0.50670624 6.1924744 1.6623459z" fill-rule="evenodd"/><path fill="#d0cece" d="m123.909134 116.51094l0 0c1.2509613 2.1690521 0.5066986 4.941513 -1.6623459 6.1924744l0 0c-1.0416107 0.6007309 -2.2792053 0.7630844 -3.4405212 0.4513321c-1.1613083 -0.31175232 -2.1512146 -1.0720596 -2.7519531 -2.113678l0 0c-1.2509537 -2.1690445 -0.5066986 -4.941513 1.6623459 -6.1924667l0 0c2.1690521 -1.2509613 4.941513 -0.50670624 6.1924744 1.6623383z" fill-rule="evenodd"/><path stroke="#000000" stroke-width="1.3333333333333333" stroke-miterlimit="800.0" stroke-linecap="butt" d="m123.909134 116.51094l0 0c1.2509613 2.1690521 0.5066986 4.941513 -1.6623459 6.1924744l0 0c-1.0416107 0.6007309 -2.2792053 0.7630844 -3.4405212 0.4513321c-1.1613083 -0.31175232 -2.1512146 -1.0720596 -2.7519531 -2.113678l0 0c-1.2509537 -2.1690445 -0.5066986 -4.941513 1.6623459 -6.1924667l0 0c2.1690521 -1.2509613 4.941513 -0.50670624 6.1924744 1.6623383z" fill-rule="evenodd"/><path fill="#d0cece" d="m117.68506 105.71897l0 0c1.2509537 2.1690521 0.5066986 4.941513 -1.6623459 6.1924744l0 0c-1.0416183 0.6007309 -2.2792053 0.7630844 -3.4405212 0.4513321c-1.1613159 -0.31175232 -2.1512222 -1.0720596 -2.7519531 -2.113678l0 0c-1.2509613 -2.1690445 -0.5066986 -4.941513 1.6623459 -6.1924667l0 0c2.1690445 -1.2509613 4.941513 -0.50670624 6.1924744 1.6623383z" fill-rule="evenodd"/><path stroke="#000000" stroke-width="1.3333333333333333" stroke-miterlimit="800.0" stroke-linecap="butt" d="m117.68506 105.71897l0 0c1.2509537 2.1690521 0.5066986 4.941513 -1.6623459 6.1924744l0 0c-1.0416183 0.6007309 -2.2792053 0.7630844 -3.4405212 0.4513321c-1.1613159 -0.31175232 -2.1512222 -1.0720596 -2.7519531 -2.113678l0 0c-1.2509613 -2.1690445 -0.5066986 -4.941513 1.6623459 -6.1924667l0 0c2.1690445 -1.2509613 4.941513 -0.50670624 6.1924744 1.6623383z" fill-rule="evenodd"/><path fill="#d0cece" d="m111.46107 94.926956l0 0c1.2509613 2.1690445 0.5066986 4.941513 -1.6623459 6.1924667l0 0c-1.0416107 0.6007385 -2.2792053 0.7630844 -3.4405212 0.4513321c-1.1613083 -0.31175232 -2.1512146 -1.0720596 -2.7519531 -2.113678l0 0c-1.2509537 -2.1690445 -0.5066986 -4.9415054 1.6623459 -6.1924667l0 0c2.1690521 -1.2509613 4.941513 -0.50670624 6.1924744 1.6623459z" fill-rule="evenodd"/><path stroke="#000000" stroke-width="1.3333333333333333" stroke-miterlimit="800.0" stroke-linecap="butt" d="m111.46107 94.926956l0 0c1.2509613 2.1690445 0.5066986 4.941513 -1.6623459 6.1924667l0 0c-1.0416107 0.6007385 -2.2792053 0.7630844 -3.4405212 0.4513321c-1.1613083 -0.31175232 -2.1512146 -1.0720596 -2.7519531 -2.113678l0 0c-1.2509537 -2.1690445 -0.5066986 -4.9415054 1.6623459 -6.1924667l0 0c2.1690521 -1.2509613 4.941513 -0.50670624 6.1924744 1.6623459z" fill-rule="evenodd"/><path fill="#d0cece" d="m105.13674 83.96117l0 0c1.2509613 2.1690521 0.50670624 4.941513 -1.6623459 6.1924744l0 0c-1.0416107 0.6007309 -2.2791977 0.7630844 -3.4405136 0.4513321c-1.1613159 -0.31175232 -2.1512222 -1.0720596 -2.7519531 -2.113678l0 0c-1.2509613 -2.1690445 -0.50670624 -4.941513 1.6623459 -6.1924667l0 0c2.1690445 -1.2509613 4.941513 -0.50670624 6.1924667 1.6623383z" fill-rule="evenodd"/><path stroke="#000000" stroke-width="1.3333333333333333" stroke-miterlimit="800.0" stroke-linecap="butt" d="m105.13674 83.96117l0 0c1.2509613 2.1690521 0.50670624 4.941513 -1.6623459 6.1924744l0 0c-1.0416107 0.6007309 -2.2791977 0.7630844 -3.4405136 0.4513321c-1.1613159 -0.31175232 -2.1512222 -1.0720596 -2.7519531 -2.113678l0 0c-1.2509613 -2.1690445 -0.50670624 -4.941513 1.6623459 -6.1924667l0 0c2.1690445 -1.2509613 4.941513 -0.50670624 6.1924667 1.6623383z" fill-rule="evenodd"/><path fill="#000000" fill-opacity="0.0" d="m128.10564 29.508997l-23.615295 40.84932" fill-rule="evenodd"/><path stroke="#000000" stroke-width="2.0" stroke-miterlimit="800.0" stroke-linecap="round" d="m128.10564 29.508997l-23.615295 40.84932" fill-rule="evenodd"/><path fill="#d0cece" d="m124.16982 27.238386l0 0c1.257782 -2.170662 4.0370865 -2.910698 6.207741 -1.652916l0 0c1.0423889 0.6040077 1.8021393 1.5973625 2.1121216 2.7615414c0.3099823 1.164177 0.14480591 2.4038143 -0.459198 3.4462013l0 0c-1.257782 2.170662 -4.0370865 2.910698 -6.2077484 1.652916l0 0c-2.170662 -1.257782 -2.910698 -4.0370827 -1.652916 -6.2077427z" fill-rule="evenodd"/><path stroke="#000000" stroke-width="1.3333333333333333" stroke-miterlimit="800.0" stroke-linecap="butt" d="m124.16982 27.238386l0 0c1.257782 -2.170662 4.0370865 -2.910698 6.207741 -1.652916l0 0c1.0423889 0.6040077 1.8021393 1.5973625 2.1121216 2.7615414c0.3099823 1.164177 0.14480591 2.4038143 -0.459198 3.4462013l0 0c-1.257782 2.170662 -4.0370865 2.910698 -6.2077484 1.652916l0 0c-2.170662 -1.257782 -2.910698 -4.0370827 -1.652916 -6.2077427z" fill-rule="evenodd"/><path fill="#d0cece" d="m117.843636 38.183846l0 0c1.257782 -2.170662 4.0370865 -2.910698 6.2077484 -1.652916l0 0c1.0423889 0.6040077 1.8021393 1.5973663 2.1121216 2.7615433c0.3099823 1.164177 0.14479828 2.4038124 -0.45920563 3.4462013l0 0c-1.257782 2.170662 -4.0370865 2.910698 -6.2077484 1.652916l0 0c-2.170662 -1.257782 -2.910698 -4.0370827 -1.652916 -6.2077446z" fill-rule="evenodd"/><path stroke="#000000" stroke-width="1.3333333333333333" stroke-miterlimit="800.0" stroke-linecap="butt" d="m117.843636 38.183846l0 0c1.257782 -2.170662 4.0370865 -2.910698 6.2077484 -1.652916l0 0c1.0423889 0.6040077 1.8021393 1.5973663 2.1121216 2.7615433c0.3099823 1.164177 0.14479828 2.4038124 -0.45920563 3.4462013l0 0c-1.257782 2.170662 -4.0370865 2.910698 -6.2077484 1.652916l0 0c-2.170662 -1.257782 -2.910698 -4.0370827 -1.652916 -6.2077446z" fill-rule="evenodd"/><path fill="#d0cece" d="m111.60948 48.970024l0 0c1.257782 -2.170662 4.037079 -2.910698 6.207741 -1.652916l0 0c1.0423889 0.6040077 1.8021469 1.5973663 2.1121292 2.7615433c0.3099823 1.164177 0.14479828 2.4038124 -0.45921326 3.4462013l0 0c-1.257782 2.170662 -4.037079 2.910698 -6.207741 1.652916l0 0c-2.170662 -1.257782 -2.910698 -4.0370827 -1.652916 -6.2077446z" fill-rule="evenodd"/><path stroke="#000000" stroke-width="1.3333333333333333" stroke-miterlimit="800.0" stroke-linecap="butt" d="m111.60948 48.970024l0 0c1.257782 -2.170662 4.037079 -2.910698 6.207741 -1.652916l0 0c1.0423889 0.6040077 1.8021469 1.5973663 2.1121292 2.7615433c0.3099823 1.164177 0.14479828 2.4038124 -0.45921326 3.4462013l0 0c-1.257782 2.170662 -4.037079 2.910698 -6.207741 1.652916l0 0c-2.170662 -1.257782 -2.910698 -4.0370827 -1.652916 -6.2077446z" fill-rule="evenodd"/><path fill="#d0cece" d="m105.375374 59.756294l0 0c1.257782 -2.170662 4.0370865 -2.910698 6.2077484 -1.652916l0 0c1.0423889 0.6040077 1.8021393 1.5973625 2.1121216 2.7615395c0.3099823 1.164177 0.14479828 2.4038162 -0.45920563 3.4462013l0 0c-1.257782 2.170662 -4.0370865 2.910698 -6.2077484 1.652916l0 0c-2.170662 -1.257782 -2.910698 -4.0370827 -1.652916 -6.207741z" fill-rule="evenodd"/><path stroke="#000000" stroke-width="1.3333333333333333" stroke-miterlimit="800.0" stroke-linecap="butt" d="m105.375374 59.756294l0 0c1.257782 -2.170662 4.0370865 -2.910698 6.2077484 -1.652916l0 0c1.0423889 0.6040077 1.8021393 1.5973625 2.1121216 2.7615395c0.3099823 1.164177 0.14479828 2.4038162 -0.45920563 3.4462013l0 0c-1.257782 2.170662 -4.0370865 2.910698 -6.2077484 1.652916l0 0c-2.170662 -1.257782 -2.910698 -4.0370827 -1.652916 -6.207741z" fill-rule="evenodd"/><path fill="#d0cece" d="m99.0409 70.7162l0 0c1.257782 -2.170662 4.0370865 -2.910698 6.2077484 -1.652916l0 0c1.0423889 0.6040039 1.8021393 1.5973587 2.1121216 2.7615433c0.3099823 1.164177 0.14479828 2.4038086 -0.45920563 3.4461975l0 0c-1.257782 2.170662 -4.0370865 2.910698 -6.2077484 1.652916l0 0c-2.170662 -1.257782 -2.910698 -4.037079 -1.652916 -6.207741z" fill-rule="evenodd"/><path stroke="#000000" stroke-width="1.3333333333333333" stroke-miterlimit="800.0" stroke-linecap="butt" d="m99.0409 70.7162l0 0c1.257782 -2.170662 4.0370865 -2.910698 6.2077484 -1.652916l0 0c1.0423889 0.6040039 1.8021393 1.5973587 2.1121216 2.7615433c0.3099823 1.164177 0.14479828 2.4038086 -0.45920563 3.4461975l0 0c-1.257782 2.170662 -4.0370865 2.910698 -6.2077484 1.652916l0 0c-2.170662 -1.257782 -2.910698 -4.037079 -1.652916 -6.207741z" fill-rule="evenodd"/><path fill="#000000" fill-opacity="0.0" d="m84.26038 95.020996l0 0c-2.6972427 -2.6495895 -6.2984543 -4.178459 -10.078056 -4.278572l-0.39575958 14.940773z" fill-rule="evenodd"/><path fill="#000000" fill-opacity="0.0" d="m84.26038 95.020996l0 0c-2.6972427 -2.6495895 -6.2984543 -4.178459 -10.078056 -4.278572" fill-rule="evenodd"/><path stroke="#000000" stroke-width="2.0" stroke-miterlimit="800.0" stroke-linecap="butt" d="m84.26038 95.020996l0 0c-2.6972427 -2.6495895 -6.2984543 -4.178459 -10.078056 -4.278572" fill-rule="evenodd"/><path fill="#000000" fill-opacity="0.0" d="m22.586964 90.35695l47.165585 0.018722534" fill-rule="evenodd"/><path stroke="#000000" stroke-width="2.0" stroke-miterlimit="800.0" stroke-linecap="round" d="m22.586964 90.35695l47.165585 0.018722534" fill-rule="evenodd"/><path fill="#000000" fill-opacity="0.0" d="m110.236885 138.98424l-23.568901 -40.86628" fill-rule="evenodd"/><path stroke="#000000" stroke-width="2.0" stroke-miterlimit="800.0" stroke-linecap="round" d="m110.236885 138.98424l-23.568901 -40.86628" fill-rule="evenodd"/><path fill="#88c8e3" d="m106.30761 141.25627l0 0c1.2509613 2.1690521 4.0234222 2.9133148 6.1924667 1.6623535l0 0c1.0416183 -0.6007385 1.8019257 -1.5906525 2.113678 -2.7519531c0.31175232 -1.1613159 0.1493988 -2.3989105 -0.4513321 -3.4405212l0 0c-1.2509613 -2.1690521 -4.0234222 -2.9133148 -6.1924667 -1.6623535l0 0c-2.1690521 1.2509613 -2.9133072 4.0234222 -1.6623459 6.1924744z" fill-rule="evenodd"/><path stroke="#000000" stroke-width="1.3333333333333333" stroke-miterlimit="800.0" stroke-linecap="butt" d="m106.30761 141.25627l0 0c1.2509613 2.1690521 4.0234222 2.9133148 6.1924667 1.6623535l0 0c1.0416183 -0.6007385 1.8019257 -1.5906525 2.113678 -2.7519531c0.31175232 -1.1613159 0.1493988 -2.3989105 -0.4513321 -3.4405212l0 0c-1.2509613 -2.1690521 -4.0234222 -2.9133148 -6.1924667 -1.6623535l0 0c-2.1690521 1.2509613 -2.9133072 4.0234222 -1.6623459 6.1924744z" fill-rule="evenodd"/><path fill="#88c8e3" d="m99.99151 130.30496l0 0c1.2509613 2.1690521 4.02343 2.9132996 6.1924744 1.6623383l0 0c1.0416107 -0.60072327 1.8019257 -1.5906372 2.113678 -2.7519531c0.3117447 -1.1613159 0.1493988 -2.398903 -0.4513321 -3.4405136l0 0c-1.2509613 -2.1690521 -4.0234222 -2.9133072 -6.1924744 -1.6623459l0 0c-2.1690445 1.2509613 -2.9132996 4.0234222 -1.6623459 6.1924744z" fill-rule="evenodd"/><path stroke="#000000" stroke-width="1.3333333333333333" stroke-miterlimit="800.0" stroke-linecap="butt" d="m99.99151 130.30496l0 0c1.2509613 2.1690521 4.02343 2.9132996 6.1924744 1.6623383l0 0c1.0416107 -0.60072327 1.8019257 -1.5906372 2.113678 -2.7519531c0.3117447 -1.1613159 0.1493988 -2.398903 -0.4513321 -3.4405136l0 0c-1.2509613 -2.1690521 -4.0234222 -2.9133072 -6.1924744 -1.6623459l0 0c-2.1690445 1.2509613 -2.9132996 4.0234222 -1.6623459 6.1924744z" fill-rule="evenodd"/><path fill="#88c8e3" d="m93.76743 119.51299l0 0c1.2509613 2.1690445 4.0234222 2.9132996 6.1924744 1.6623383l0 0c1.0416107 -0.6007309 1.8019257 -1.5906372 2.1136703 -2.7519455c0.31175232 -1.1613159 0.14940643 -2.3989105 -0.45132446 -3.4405212l0 0c-1.2509613 -2.1690521 -4.02343 -2.9133072 -6.1924744 -1.6623459l0 0c-2.1690445 1.2509613 -2.9133072 4.0234222 -1.6623459 6.1924744z" fill-rule="evenodd"/><path stroke="#000000" stroke-width="1.3333333333333333" stroke-miterlimit="800.0" stroke-linecap="butt" d="m93.76743 119.51299l0 0c1.2509613 2.1690445 4.0234222 2.9132996 6.1924744 1.6623383l0 0c1.0416107 -0.6007309 1.8019257 -1.5906372 2.1136703 -2.7519455c0.31175232 -1.1613159 0.14940643 -2.3989105 -0.45132446 -3.4405212l0 0c-1.2509613 -2.1690521 -4.02343 -2.9133072 -6.1924744 -1.6623459l0 0c-2.1690445 1.2509613 -2.9133072 4.0234222 -1.6623459 6.1924744z" fill-rule="evenodd"/><path fill="#88c8e3" d="m87.54336 108.72102l0 0c1.2509613 2.1690445 4.0234222 2.9132996 6.1924667 1.6623383l0 0c1.0416183 -0.6007309 1.8019257 -1.5906372 2.113678 -2.7519531c0.31175232 -1.1613083 0.14940643 -2.398903 -0.4513321 -3.4405136l0 0c-1.2509537 -2.1690521 -4.0234222 -2.9133072 -6.1924667 -1.6623459l0 0c-2.1690521 1.2509613 -2.9133072 4.0234222 -1.6623459 6.1924744z" fill-rule="evenodd"/><path stroke="#000000" stroke-width="1.3333333333333333" stroke-miterlimit="800.0" stroke-linecap="butt" d="m87.54336 108.72102l0 0c1.2509613 2.1690445 4.0234222 2.9132996 6.1924667 1.6623383l0 0c1.0416183 -0.6007309 1.8019257 -1.5906372 2.113678 -2.7519531c0.31175232 -1.1613083 0.14940643 -2.398903 -0.4513321 -3.4405136l0 0c-1.2509537 -2.1690521 -4.0234222 -2.9133072 -6.1924667 -1.6623459l0 0c-2.1690521 1.2509613 -2.9133072 4.0234222 -1.6623459 6.1924744z" fill-rule="evenodd"/><path fill="#88c8e3" d="m81.21903 97.75523l0 0c1.2509613 2.1690521 4.02343 2.9133072 6.1924744 1.6623459l0 0c1.0416107 -0.6007309 1.8019257 -1.5906372 2.113678 -2.7519531c0.3117447 -1.1613083 0.1493988 -2.398903 -0.4513321 -3.4405136l0 0c-1.2509613 -2.1690521 -4.0234222 -2.9133072 -6.1924744 -1.6623459l0 0c-2.1690445 1.2509537 -2.9133072 4.0234222 -1.6623459 6.1924667z" fill-rule="evenodd"/><path stroke="#000000" stroke-width="1.3333333333333333" stroke-miterlimit="800.0" stroke-linecap="butt" d="m81.21903 97.75523l0 0c1.2509613 2.1690521 4.02343 2.9133072 6.1924744 1.6623459l0 0c1.0416107 -0.6007309 1.8019257 -1.5906372 2.113678 -2.7519531c0.3117447 -1.1613083 0.1493988 -2.398903 -0.4513321 -3.4405136l0 0c-1.2509613 -2.1690521 -4.0234222 -2.9133072 -6.1924744 -1.6623459l0 0c-2.1690445 1.2509537 -2.9133072 4.0234222 -1.6623459 6.1924667z" fill-rule="evenodd"/><path fill="#88c8e3" d="m22.5902 85.82247l0 0c-2.5087414 0.0016098022 -4.54117 2.0366516 -4.5395565 4.545395l0 0c7.7438354E-4 1.2047424 0.48009872 2.3598328 1.3325272 3.2111588c0.85242844 0.8513336 2.008133 1.3291702 3.2128716 1.3283997l0 0c2.5087414 -0.0016174316 4.54117 -2.0366592 4.5395565 -4.5454025l0 0c-0.001613617 -2.5087433 -2.0366573 -4.541168 -4.5453987 -4.539551z" fill-rule="evenodd"/><path stroke="#000000" stroke-width="1.3333333333333333" stroke-miterlimit="800.0" stroke-linecap="butt" d="m22.5902 85.82247l0 0c-2.5087414 0.0016098022 -4.54117 2.0366516 -4.5395565 4.545395l0 0c7.7438354E-4 1.2047424 0.48009872 2.3598328 1.3325272 3.2111588c0.85242844 0.8513336 2.008133 1.3291702 3.2128716 1.3283997l0 0c2.5087414 -0.0016174316 4.54117 -2.0366592 4.5395565 -4.5454025l0 0c-0.001613617 -2.5087433 -2.0366573 -4.541168 -4.5453987 -4.539551z" fill-rule="evenodd"/><path fill="#88c8e3" d="m35.232338 85.828285l0 0c-2.5087395 0.0016098022 -4.541168 2.0366592 -4.5395546 4.5454025l0 0c7.7438354E-4 1.2047348 0.48009872 2.3598251 1.3325272 3.2111588c0.8524246 0.8513336 2.008133 1.3291702 3.2128716 1.328392l0 0c2.5087395 -0.0016098022 4.541168 -2.0366592 4.5395546 -4.545395l0 0c-0.001613617 -2.5087433 -2.0366592 -4.541176 -4.5453987 -4.5395584z" fill-rule="evenodd"/><path stroke="#000000" stroke-width="1.3333333333333333" stroke-miterlimit="800.0" stroke-linecap="butt" d="m35.232338 85.828285l0 0c-2.5087395 0.0016098022 -4.541168 2.0366592 -4.5395546 4.5454025l0 0c7.7438354E-4 1.2047348 0.48009872 2.3598251 1.3325272 3.2111588c0.8524246 0.8513336 2.008133 1.3291702 3.2128716 1.328392l0 0c2.5087395 -0.0016098022 4.541168 -2.0366592 4.5395546 -4.545395l0 0c-0.001613617 -2.5087433 -2.0366592 -4.541176 -4.5453987 -4.5395584z" fill-rule="evenodd"/><path fill="#88c8e3" d="m47.690483 85.83413l0 0c-2.5087395 0.0016098022 -4.541168 2.0366516 -4.5395546 4.545395l0 0c7.7438354E-4 1.2047424 0.48009872 2.3598328 1.3325272 3.2111588c0.85242844 0.8513336 2.008133 1.3291702 3.2128716 1.3283997l0 0c2.5087433 -0.0016174316 4.541168 -2.0366592 4.5395546 -4.5454025l0 0c-0.001613617 -2.5087357 -2.0366554 -4.541168 -4.5453987 -4.539551z" fill-rule="evenodd"/><path stroke="#000000" stroke-width="1.3333333333333333" stroke-miterlimit="800.0" stroke-linecap="butt" d="m47.690483 85.83413l0 0c-2.5087395 0.0016098022 -4.541168 2.0366516 -4.5395546 4.545395l0 0c7.7438354E-4 1.2047424 0.48009872 2.3598328 1.3325272 3.2111588c0.85242844 0.8513336 2.008133 1.3291702 3.2128716 1.3283997l0 0c2.5087433 -0.0016174316 4.541168 -2.0366592 4.5395546 -4.5454025l0 0c-0.001613617 -2.5087357 -2.0366554 -4.541168 -4.5453987 -4.539551z" fill-rule="evenodd"/><path fill="#88c8e3" d="m60.148666 85.83983l0 0c-2.5087395 0.0016174316 -4.541168 2.0366592 -4.5395546 4.5454025l0 0c7.7438354E-4 1.2047348 0.48009872 2.3598251 1.3325272 3.2111588c0.85242844 0.8513336 2.008133 1.3291702 3.2128716 1.328392l0 0c2.5087433 -0.0016098022 4.541168 -2.0366592 4.5395584 -4.545395l0 0c-0.0016174316 -2.5087433 -2.0366592 -4.541168 -4.5454025 -4.5395584z" fill-rule="evenodd"/><path stroke="#000000" stroke-width="1.3333333333333333" stroke-miterlimit="800.0" stroke-linecap="butt" d="m60.148666 85.83983l0 0c-2.5087395 0.0016174316 -4.541168 2.0366592 -4.5395546 4.5454025l0 0c7.7438354E-4 1.2047348 0.48009872 2.3598251 1.3325272 3.2111588c0.85242844 0.8513336 2.008133 1.3291702 3.2128716 1.328392l0 0c2.5087433 -0.0016098022 4.541168 -2.0366592 4.5395584 -4.545395l0 0c-0.0016174316 -2.5087433 -2.0366592 -4.541168 -4.5454025 -4.5395584z" fill-rule="evenodd"/><path fill="#88c8e3" d="m72.8076 85.84574l0 0c-2.5087433 0.0016174316 -4.541168 2.0366592 -4.5395584 4.5454025l0 0c7.7819824E-4 1.2047348 0.48010254 2.3598251 1.3325272 3.2111588c0.85243225 0.8513336 2.008133 1.3291702 3.2128754 1.328392l0 0c2.5087433 -0.0016098022 4.541168 -2.0366516 4.539551 -4.545395l0 0c-0.0016098022 -2.5087433 -2.0366516 -4.541168 -4.545395 -4.5395584z" fill-rule="evenodd"/><path stroke="#000000" stroke-width="1.3333333333333333" stroke-miterlimit="800.0" stroke-linecap="butt" d="m72.8076 85.84574l0 0c-2.5087433 0.0016174316 -4.541168 2.0366592 -4.5395584 4.5454025l0 0c7.7819824E-4 1.2047348 0.48010254 2.3598251 1.3325272 3.2111588c0.85243225 0.8513336 2.008133 1.3291702 3.2128754 1.328392l0 0c2.5087433 -0.0016098022 4.541168 -2.0366516 4.539551 -4.545395l0 0c-0.0016098022 -2.5087433 -2.0366516 -4.541168 -4.545395 -4.5395584z" fill-rule="evenodd"/><path fill="#000000" fill-opacity="0.0" d="m112.21082 20.236042l-23.604454 40.834087" fill-rule="evenodd"/><path stroke="#000000" stroke-width="2.0" stroke-miterlimit="800.0" stroke-linecap="round" d="m112.21082 20.236042l-23.604454 40.834087" fill-rule="evenodd"/><path fill="#000000" fill-opacity="0.0" d="m122.44307 26.164873l-4.5945663 -2.655613" fill-rule="evenodd"/><path stroke="#000000" stroke-width="1.6666666666666667" stroke-miterlimit="800.0" stroke-linecap="round" d="m122.44307 26.164873l-4.5945663 -2.655613" fill-rule="evenodd"/><path fill="#000000" fill-opacity="0.0" d="m115.995964 37.31923l-4.5945663 -2.655613" fill-rule="evenodd"/><path stroke="#000000" stroke-width="1.6666666666666667" stroke-miterlimit="800.0" stroke-linecap="round" d="m115.995964 37.31923l-4.5945663 -2.655613" fill-rule="evenodd"/><path fill="#000000" fill-opacity="0.0" d="m109.98648 47.79833l-4.5945663 -2.6556091" fill-rule="evenodd"/><path stroke="#000000" stroke-width="1.6666666666666667" stroke-miterlimit="800.0" stroke-linecap="round" d="m109.98648 47.79833l-4.5945663 -2.6556091" fill-rule="evenodd"/><path fill="#000000" fill-opacity="0.0" d="m103.68526 58.7003l-4.5945663 -2.655613" fill-rule="evenodd"/><path stroke="#000000" stroke-width="1.6666666666666667" stroke-miterlimit="800.0" stroke-linecap="round" d="m103.68526 58.7003l-4.5945663 -2.655613" fill-rule="evenodd"/><path fill="#000000" fill-opacity="0.0" d="m97.348564 69.58173l-4.5945663 -2.6556168" fill-rule="evenodd"/><path stroke="#000000" stroke-width="1.6666666666666667" stroke-miterlimit="800.0" stroke-linecap="round" d="m97.348564 69.58173l-4.5945663 -2.6556168" fill-rule="evenodd"/><path fill="#000000" fill-opacity="0.0" d="m22.38215 72.042946l47.16559 0.018714905" fill-rule="evenodd"/><path stroke="#000000" stroke-width="2.0" stroke-miterlimit="800.0" stroke-linecap="round" d="m22.38215 72.042946l47.16559 0.018714905" fill-rule="evenodd"/><path fill="#ff7e79" d="m108.27047 17.975927l0 0c1.257782 -2.170661 4.037079 -2.910697 6.207741 -1.652916l0 0c1.0423889 0.6040077 1.8021469 1.5973644 2.1121292 2.7615414c0.30997467 1.1641788 0.14479828 2.4038143 -0.45921326 3.4462032l0 0c-1.257782 2.17066 -4.037079 2.910696 -6.207741 1.652916l0 0c-2.170662 -1.257782 -2.910698 -4.0370827 -1.652916 -6.2077446z" fill-rule="evenodd"/><path stroke="#000000" stroke-width="1.3333333333333333" stroke-miterlimit="800.0" stroke-linecap="butt" d="m108.27047 17.975927l0 0c1.257782 -2.170661 4.037079 -2.910697 6.207741 -1.652916l0 0c1.0423889 0.6040077 1.8021469 1.5973644 2.1121292 2.7615414c0.30997467 1.1641788 0.14479828 2.4038143 -0.45921326 3.4462032l0 0c-1.257782 2.17066 -4.037079 2.910696 -6.207741 1.652916l0 0c-2.170662 -1.257782 -2.910698 -4.0370827 -1.652916 -6.2077446z" fill-rule="evenodd"/><path fill="#ff7e79" d="m101.94428 28.921389l0 0c1.257782 -2.170662 4.0370865 -2.910698 6.2077484 -1.652916l0 0c1.0423889 0.6040077 1.8021393 1.5973625 2.1121216 2.7615414c0.3099823 1.164177 0.14479828 2.4038124 -0.45920563 3.4462013l0 0c-1.257782 2.170662 -4.0370865 2.910698 -6.2077484 1.652916l0 0c-2.170662 -1.257782 -2.910698 -4.0370827 -1.652916 -6.2077427z" fill-rule="evenodd"/><path stroke="#000000" stroke-width="1.3333333333333333" stroke-miterlimit="800.0" stroke-linecap="butt" d="m101.94428 28.921389l0 0c1.257782 -2.170662 4.0370865 -2.910698 6.2077484 -1.652916l0 0c1.0423889 0.6040077 1.8021393 1.5973625 2.1121216 2.7615414c0.3099823 1.164177 0.14479828 2.4038124 -0.45920563 3.4462013l0 0c-1.257782 2.170662 -4.0370865 2.910698 -6.2077484 1.652916l0 0c-2.170662 -1.257782 -2.910698 -4.0370827 -1.652916 -6.2077427z" fill-rule="evenodd"/><path fill="#ff7e79" d="m95.71013 39.707565l0 0c1.257782 -2.170658 4.037079 -2.9106941 6.207741 -1.652916l0 0c1.0423889 0.6040077 1.8021469 1.5973663 2.1121292 2.7615433c0.3099823 1.164177 0.14479828 2.4038124 -0.45921326 3.4462013l0 0c-1.2577744 2.170662 -4.037079 2.910698 -6.207741 1.652916l0 0c-2.170662 -1.2577782 -2.910698 -4.0370827 -1.652916 -6.2077446z" fill-rule="evenodd"/><path stroke="#000000" stroke-width="1.3333333333333333" stroke-miterlimit="800.0" stroke-linecap="butt" d="m95.71013 39.707565l0 0c1.257782 -2.170658 4.037079 -2.9106941 6.207741 -1.652916l0 0c1.0423889 0.6040077 1.8021469 1.5973663 2.1121292 2.7615433c0.3099823 1.164177 0.14479828 2.4038124 -0.45921326 3.4462013l0 0c-1.2577744 2.170662 -4.037079 2.910698 -6.207741 1.652916l0 0c-2.170662 -1.2577782 -2.910698 -4.0370827 -1.652916 -6.2077446z" fill-rule="evenodd"/><path fill="#ff7e79" d="m89.47602 50.493835l0 0c1.257782 -2.170662 4.0370865 -2.910698 6.2077484 -1.652916l0 0c1.0423889 0.6040077 1.8021393 1.5973625 2.1121216 2.7615395c0.3099823 1.1641808 0.14479828 2.4038162 -0.45920563 3.4462051l0 0c-1.257782 2.170658 -4.0370865 2.9106941 -6.2077484 1.652916l0 0c-2.170662 -1.257782 -2.910698 -4.0370827 -1.652916 -6.2077446z" fill-rule="evenodd"/><path stroke="#000000" stroke-width="1.3333333333333333" stroke-miterlimit="800.0" stroke-linecap="butt" d="m89.47602 50.493835l0 0c1.257782 -2.170662 4.0370865 -2.910698 6.2077484 -1.652916l0 0c1.0423889 0.6040077 1.8021393 1.5973625 2.1121216 2.7615395c0.3099823 1.1641808 0.14479828 2.4038162 -0.45920563 3.4462051l0 0c-1.257782 2.170658 -4.0370865 2.9106941 -6.2077484 1.652916l0 0c-2.170662 -1.257782 -2.910698 -4.0370827 -1.652916 -6.2077446z" fill-rule="evenodd"/><path fill="#ff7e79" d="m83.14155 61.453743l0 0c1.257782 -2.170662 4.0370865 -2.910698 6.2077484 -1.652916l0 0c1.0423889 0.6040077 1.8021393 1.5973625 2.1121216 2.7615395c0.3099823 1.164177 0.14479828 2.4038124 -0.45920563 3.4462013l0 0c-1.257782 2.170662 -4.0370865 2.910698 -6.2077484 1.652916l0 0c-2.170662 -1.257782 -2.910698 -4.0370827 -1.652916 -6.207741z" fill-rule="evenodd"/><path stroke="#000000" stroke-width="1.3333333333333333" stroke-miterlimit="800.0" stroke-linecap="butt" d="m83.14155 61.453743l0 0c1.257782 -2.170662 4.0370865 -2.910698 6.2077484 -1.652916l0 0c1.0423889 0.6040077 1.8021393 1.5973625 2.1121216 2.7615395c0.3099823 1.164177 0.14479828 2.4038124 -0.45920563 3.4462013l0 0c-1.257782 2.170662 -4.0370865 2.910698 -6.2077484 1.652916l0 0c-2.170662 -1.257782 -2.910698 -4.0370827 -1.652916 -6.207741z" fill-rule="evenodd"/><path fill="#ff7e79" d="m22.38094 76.586296l0 0c-2.5087414 0.0016098022 -4.543785 -2.0308151 -4.5453987 -4.5395584l0 0c-7.762909E-4 -1.2047424 0.47706223 -2.360443 1.3283939 -3.2128754c0.8513317 -0.8524246 2.006422 -1.331749 3.2111607 -1.3325272l0 0c2.5087414 -0.0016098022 4.543785 2.0308151 4.5453987 4.5395584l0 0c0.001613617 2.5087433 -2.0308132 4.543785 -4.5395546 4.5454025z" fill-rule="evenodd"/><path stroke="#000000" stroke-width="1.3333333333333333" stroke-miterlimit="800.0" stroke-linecap="butt" d="m22.38094 76.586296l0 0c-2.5087414 0.0016098022 -4.543785 -2.0308151 -4.5453987 -4.5395584l0 0c-7.762909E-4 -1.2047424 0.47706223 -2.360443 1.3283939 -3.2128754c0.8513317 -0.8524246 2.006422 -1.331749 3.2111607 -1.3325272l0 0c2.5087414 -0.0016098022 4.543785 2.0308151 4.5453987 4.5395584l0 0c0.001613617 2.5087433 -2.0308132 4.543785 -4.5395546 4.5454025z" fill-rule="evenodd"/><path fill="#ff7e79" d="m35.02313 76.5922l0 0c-2.5087395 0.0016098022 -4.543785 -2.0308151 -4.5453987 -4.5395584l0 0c-7.7438354E-4 -1.2047424 0.47706223 -2.360443 1.3283939 -3.2128754c0.8513317 -0.8524246 2.006422 -1.331749 3.2111607 -1.3325272l0 0c2.5087433 -0.0016098022 4.543785 2.0308151 4.5453987 4.5395584l0 0c0.001613617 2.5087433 -2.0308151 4.543785 -4.5395546 4.5454025z" fill-rule="evenodd"/><path stroke="#000000" stroke-width="1.3333333333333333" stroke-miterlimit="800.0" stroke-linecap="butt" d="m35.02313 76.5922l0 0c-2.5087395 0.0016098022 -4.543785 -2.0308151 -4.5453987 -4.5395584l0 0c-7.7438354E-4 -1.2047424 0.47706223 -2.360443 1.3283939 -3.2128754c0.8513317 -0.8524246 2.006422 -1.331749 3.2111607 -1.3325272l0 0c2.5087433 -0.0016098022 4.543785 2.0308151 4.5453987 4.5395584l0 0c0.001613617 2.5087433 -2.0308151 4.543785 -4.5395546 4.5454025z" fill-rule="evenodd"/><path fill="#ff7e79" d="m47.481224 76.59795l0 0c-2.5087395 0.0016098022 -4.543785 -2.0308151 -4.5453987 -4.5395584l0 0c-7.7438354E-4 -1.2047424 0.47706223 -2.360443 1.3283958 -3.2128754c0.8513298 -0.8524246 2.0064201 -1.331749 3.2111588 -1.3325272l0 0c2.5087395 -0.0016098022 4.543785 2.0308151 4.5453987 4.5395584l0 0c0.001613617 2.5087433 -2.0308151 4.543785 -4.5395546 4.5454025z" fill-rule="evenodd"/><path stroke="#000000" stroke-width="1.3333333333333333" stroke-miterlimit="800.0" stroke-linecap="butt" d="m47.481224 76.59795l0 0c-2.5087395 0.0016098022 -4.543785 -2.0308151 -4.5453987 -4.5395584l0 0c-7.7438354E-4 -1.2047424 0.47706223 -2.360443 1.3283958 -3.2128754c0.8513298 -0.8524246 2.0064201 -1.331749 3.2111588 -1.3325272l0 0c2.5087395 -0.0016098022 4.543785 2.0308151 4.5453987 4.5395584l0 0c0.001613617 2.5087433 -2.0308151 4.543785 -4.5395546 4.5454025z" fill-rule="evenodd"/><path fill="#ff7e79" d="m59.939457 76.603745l0 0c-2.5087395 0.0016098022 -4.543785 -2.0308151 -4.5453987 -4.5395584l0 0c-7.7438354E-4 -1.2047424 0.47706223 -2.360443 1.3283958 -3.2128754c0.8513336 -0.8524246 2.0064201 -1.331749 3.2111626 -1.3325272l0 0c2.5087395 -0.0016098022 4.543785 2.0308151 4.545395 4.5395584l0 0c0.0016174316 2.5087433 -2.0308113 4.543785 -4.5395546 4.5454025z" fill-rule="evenodd"/><path stroke="#000000" stroke-width="1.3333333333333333" stroke-miterlimit="800.0" stroke-linecap="butt" d="m59.939457 76.603745l0 0c-2.5087395 0.0016098022 -4.543785 -2.0308151 -4.5453987 -4.5395584l0 0c-7.7438354E-4 -1.2047424 0.47706223 -2.360443 1.3283958 -3.2128754c0.8513336 -0.8524246 2.0064201 -1.331749 3.2111626 -1.3325272l0 0c2.5087395 -0.0016098022 4.543785 2.0308151 4.545395 4.5395584l0 0c0.0016174316 2.5087433 -2.0308113 4.543785 -4.5395546 4.5454025z" fill-rule="evenodd"/><path fill="#ff7e79" d="m72.59825 76.60962l0 0c-2.5087433 0.0016098022 -4.543785 -2.0308151 -4.545395 -4.5395584l0 0c-7.7819824E-4 -1.2047348 0.4770584 -2.360443 1.328392 -3.2128677c0.8513336 -0.85243225 2.0064163 -1.3317566 3.2111588 -1.3325272l0 0c2.5087433 -0.0016174316 4.543785 2.0308151 4.5454025 4.539551l0 0c0.0016098022 2.5087433 -2.0308151 4.543785 -4.5395584 4.5454025z" fill-rule="evenodd"/><path stroke="#000000" stroke-width="1.3333333333333333" stroke-miterlimit="800.0" stroke-linecap="butt" d="m72.59825 76.60962l0 0c-2.5087433 0.0016098022 -4.543785 -2.0308151 -4.545395 -4.5395584l0 0c-7.7819824E-4 -1.2047348 0.4770584 -2.360443 1.328392 -3.2128677c0.8513336 -0.85243225 2.0064163 -1.3317566 3.2111588 -1.3325272l0 0c2.5087433 -0.0016174316 4.543785 2.0308151 4.5454025 4.539551l0 0c0.0016098022 2.5087433 -2.0308151 4.543785 -4.5395584 4.5454025z" fill-rule="evenodd"/><path fill="#000000" fill-opacity="0.0" d="m22.570147 78.62988l-0.002374649 5.306816" fill-rule="evenodd"/><path stroke="#000000" stroke-width="1.6666666666666667" stroke-miterlimit="800.0" stroke-linecap="round" d="m22.570147 78.62988l-0.002374649 5.306816" fill-rule="evenodd"/><path fill="#000000" fill-opacity="0.0" d="m35.45366 78.63564l-0.0023765564 5.306816" fill-rule="evenodd"/><path stroke="#000000" stroke-width="1.6666666666666667" stroke-miterlimit="800.0" stroke-linecap="round" d="m35.45366 78.63564l-0.0023765564 5.306816" fill-rule="evenodd"/><path fill="#000000" fill-opacity="0.0" d="m47.533566 78.600075l-0.0023765564 5.306816" fill-rule="evenodd"/><path stroke="#000000" stroke-width="1.6666666666666667" stroke-miterlimit="800.0" stroke-linecap="round" d="m47.533566 78.600075l-0.0023765564 5.306816" fill-rule="evenodd"/><path fill="#000000" fill-opacity="0.0" d="m60.12556 78.605705l-0.0023765564 5.306816" fill-rule="evenodd"/><path stroke="#000000" stroke-width="1.6666666666666667" stroke-miterlimit="800.0" stroke-linecap="round" d="m60.12556 78.605705l-0.0023765564 5.306816" fill-rule="evenodd"/><path fill="#000000" fill-opacity="0.0" d="m72.71751 78.65232l-0.0023727417 5.3068237" fill-rule="evenodd"/><path stroke="#000000" stroke-width="1.6666666666666667" stroke-miterlimit="800.0" stroke-linecap="round" d="m72.71751 78.65232l-0.0023727417 5.3068237" fill-rule="evenodd"/></g></svg>