<svg version="1.1" viewBox="0.0 0.0 100.0 100.0" fill="none" stroke="none" stroke-linecap="square" stroke-miterlimit="10" xmlns:xlink="http://www.w3.org/1999/xlink" xmlns="http://www.w3.org/2000/svg"><clipPath id="p.0"><path d="m0 0l100.0 0l0 100.0l-100.0 0l0 -100.0z" clip-rule="nonzero"/></clipPath><g clip-path="url(#p.0)"><path fill="#000000" fill-opacity="0.0" d="m0 0l100.0 0l0 100.0l-100.0 0z" fill-rule="evenodd"/><path fill="#000000" fill-opacity="0.0" d="m16.072496 61.51681c7.2369556 1.3856163 14.4738865 2.7712517 18.90373 0.2386589c4.4298477 -2.532589 3.6602669 -12.90073 7.6754494 -15.434177c4.015167 -2.533474 12.8853 1.3167801 16.41555 0.2334404c3.5302544 -1.0833397 4.1481285 -3.9084053 4.7659874 -6.7334976" fill-rule="evenodd"/><path stroke="#000000" stroke-width="2.0" stroke-miterlimit="800.0" stroke-linecap="round" d="m16.072496 61.51681c7.2369556 1.3856163 14.4738865 2.7712517 18.90373 0.2386589c4.4298477 -2.532589 3.6602669 -12.90073 7.6754494 -15.434177c4.015167 -2.533474 12.8853 1.3167801 16.41555 0.2334404c3.5302544 -1.0833397 4.1481285 -3.9084053 4.7659874 -6.7334976" fill-rule="evenodd"/><path fill="#4bd7d9" d="m58.899445 45.76121l0 0c-1.0028572 -2.604515 0.29553986 -5.528866 2.900051 -6.531723l0 0c1.2507324 -0.48159027 2.6415443 -0.44660568 3.8664818 0.09725952c1.2249374 0.5438652 2.1836548 1.5520592 2.665245 2.8027916l0 0c1.0028534 2.6045113 -0.29553986 5.528866 -2.900055 6.531723l0 0c-2.6045113 1.0028572 -5.528866 -0.29553986 -6.531723 -2.900051z" fill-rule="evenodd"/><path stroke="#000000" stroke-width="1.3333333333333333" stroke-miterlimit="800.0" stroke-linecap="butt" d="m58.899445 45.76121l0 0c-1.0028572 -2.604515 0.29553986 -5.528866 2.900051 -6.531723l0 0c1.2507324 -0.48159027 2.6415443 -0.44660568 3.8664818 0.09725952c1.2249374 0.5438652 2.1836548 1.5520592 2.665245 2.8027916l0 0c1.0028534 2.6045113 -0.29553986 5.528866 -2.900055 6.531723l0 0c-2.6045113 1.0028572 -5.528866 -0.29553986 -6.531723 -2.900051z" fill-rule="evenodd"/><path fill="#4bd7d9" d="m46.35169 48.674664l0 0c-1.2940521 -2.4762192 -0.33571243 -5.532627 2.1405067 -6.826679l0 0c1.1891251 -0.6214256 2.5764046 -0.7450218 3.8566551 -0.3435974c1.2802505 0.4014244 2.3486023 1.2949829 2.970028 2.484108l0 0c1.2940483 2.4762192 0.33571243 5.532627 -2.1405106 6.826679l0 0c-2.4762192 1.2940521 -5.532631 0.33571243 -6.826679 -2.1405106z" fill-rule="evenodd"/><path stroke="#000000" stroke-width="1.3333333333333333" stroke-miterlimit="800.0" stroke-linecap="butt" d="m46.35169 48.674664l0 0c-1.2940521 -2.4762192 -0.33571243 -5.532627 2.1405067 -6.826679l0 0c1.1891251 -0.6214256 2.5764046 -0.7450218 3.8566551 -0.3435974c1.2802505 0.4014244 2.3486023 1.2949829 2.970028 2.484108l0 0c1.2940483 2.4762192 0.33571243 5.532627 -2.1405106 6.826679l0 0c-2.4762192 1.2940521 -5.532631 0.33571243 -6.826679 -2.1405106z" fill-rule="evenodd"/><path fill="#4bd7d9" d="m34.34791 55.19825l0 0c-1.2940521 -2.476223 -0.33571243 -5.532631 2.1405106 -6.826679l0 0c1.1891212 -0.6214256 2.5764008 -0.7450218 3.8566513 -0.3435974c1.2802505 0.4014206 2.3486023 1.2949829 2.970028 2.4841042l0 0c1.2940483 2.476223 0.33571243 5.532631 -2.1405106 6.826683l0 0c-2.4762192 1.2940483 -5.532627 0.33570862 -6.826679 -2.1405106z" fill-rule="evenodd"/><path stroke="#000000" stroke-width="1.3333333333333333" stroke-miterlimit="800.0" stroke-linecap="butt" d="m34.34791 55.19825l0 0c-1.2940521 -2.476223 -0.33571243 -5.532631 2.1405106 -6.826679l0 0c1.1891212 -0.6214256 2.5764008 -0.7450218 3.8566513 -0.3435974c1.2802505 0.4014206 2.3486023 1.2949829 2.970028 2.4841042l0 0c1.2940483 2.476223 0.33571243 5.532631 -2.1405106 6.826683l0 0c-2.4762192 1.2940483 -5.532627 0.33570862 -6.826679 -2.1405106z" fill-rule="evenodd"/><path fill="#4bd7d9" d="m25.852215 65.78458l0 0c-1.2940502 -2.4762192 -0.33571243 -5.532631 2.1405087 -6.826679l0 0c1.1891232 -0.6214256 2.5764046 -0.7450218 3.8566551 -0.3435974c1.2802525 0.4014206 2.3486004 1.2949829 2.970026 2.4841042l0 0c1.2940521 2.476223 0.33571243 5.532631 -2.1405106 6.826683l0 0c-2.4762192 1.2940521 -5.532629 0.33570862 -6.826679 -2.1405106z" fill-rule="evenodd"/><path stroke="#000000" stroke-width="1.3333333333333333" stroke-miterlimit="800.0" stroke-linecap="butt" d="m25.852215 65.78458l0 0c-1.2940502 -2.4762192 -0.33571243 -5.532631 2.1405087 -6.826679l0 0c1.1891232 -0.6214256 2.5764046 -0.7450218 3.8566551 -0.3435974c1.2802525 0.4014206 2.3486004 1.2949829 2.970026 2.4841042l0 0c1.2940521 2.476223 0.33571243 5.532631 -2.1405106 6.826683l0 0c-2.4762192 1.2940521 -5.532629 0.33570862 -6.826679 -2.1405106z" fill-rule="evenodd"/><path fill="#4bd7d9" d="m11.465622 63.791016l0 0c-1.2940502 -2.476223 -0.33571148 -5.532631 2.1405096 -6.826683l0 0c1.1891232 -0.6214218 2.5764036 -0.745018 3.8566542 -0.3435974c1.2802505 0.4014244 2.3486004 1.2949829 2.970026 2.484108l0 0c1.2940502 2.4762192 0.33571243 5.532631 -2.1405087 6.826683l0 0c-2.476221 1.2940445 -5.53263 0.33570862 -6.826681 -2.1405106z" fill-rule="evenodd"/><path stroke="#000000" stroke-width="1.3333333333333333" stroke-miterlimit="800.0" stroke-linecap="butt" d="m11.465622 63.791016l0 0c-1.2940502 -2.476223 -0.33571148 -5.532631 2.1405096 -6.826683l0 0c1.1891232 -0.6214218 2.5764036 -0.745018 3.8566542 -0.3435974c1.2802505 0.4014244 2.3486004 1.2949829 2.970026 2.484108l0 0c1.2940502 2.4762192 0.33571243 5.532631 -2.1405087 6.826683l0 0c-2.476221 1.2940445 -5.53263 0.33570862 -6.826681 -2.1405106z" fill-rule="evenodd"/><path fill="#000000" fill-opacity="0.0" d="m69.671326 31.938948c7.2516174 1.3690472 14.503204 2.7381039 18.95195 0.21371269" fill-rule="evenodd"/><path stroke="#000000" stroke-width="2.0" stroke-miterlimit="800.0" stroke-linecap="round" d="m69.671326 31.938948c7.2516174 1.3690472 14.503204 2.7381039 18.95195 0.21371269" fill-rule="evenodd"/><path fill="#4bd7d9" d="m79.59328 36.118652l0 0c-1.2901306 -2.4707909 -0.33301544 -5.519619 2.1377792 -6.8097477l0 0c1.1865158 -0.61954117 2.570549 -0.7423668 3.847618 -0.34145546c1.2770767 0.40091133 2.3425903 1.2927189 2.9621277 2.4792347l0 0c1.2901306 2.4707928 0.33301544 5.519621 -2.1377792 6.8097477l0 0c-2.4707947 1.2901306 -5.519623 0.33301163 -6.809746 -2.1377792z" fill-rule="evenodd"/><path stroke="#000000" stroke-width="1.3333333333333333" stroke-miterlimit="800.0" stroke-linecap="butt" d="m79.59328 36.118652l0 0c-1.2901306 -2.4707909 -0.33301544 -5.519619 2.1377792 -6.8097477l0 0c1.1865158 -0.61954117 2.570549 -0.7423668 3.847618 -0.34145546c1.2770767 0.40091133 2.3425903 1.2927189 2.9621277 2.4792347l0 0c1.2901306 2.4707928 0.33301544 5.519621 -2.1377792 6.8097477l0 0c-2.4707947 1.2901306 -5.519623 0.33301163 -6.809746 -2.1377792z" fill-rule="evenodd"/><path fill="#4bd7d9" d="m64.73695 32.79759l0 0c-0.5551529 -2.736637 1.213295 -5.4051533 3.949936 -5.9603004l0 0c1.3141785 -0.26659012 2.6804352 -2.0599365E-4 3.7982025 0.740551c1.117775 0.740757 1.8955078 1.8952084 2.162094 3.2093868l0 0c0.55514526 2.7366352 -1.2133026 5.4051533 -3.949936 5.9602985l0 0c-2.7366333 0.55514526 -5.4051514 -1.2132988 -5.9602966 -3.949936z" fill-rule="evenodd"/><path stroke="#000000" stroke-width="1.3333333333333333" stroke-miterlimit="800.0" stroke-linecap="butt" d="m64.73695 32.79759l0 0c-0.5551529 -2.736637 1.213295 -5.4051533 3.949936 -5.9603004l0 0c1.3141785 -0.26659012 2.6804352 -2.0599365E-4 3.7982025 0.740551c1.117775 0.740757 1.8955078 1.8952084 2.162094 3.2093868l0 0c0.55514526 2.7366352 -1.2133026 5.4051533 -3.949936 5.9602985l0 0c-2.7366333 0.55514526 -5.4051514 -1.2132988 -5.9602966 -3.949936z" fill-rule="evenodd"/><path fill="#000000" fill-opacity="0.0" d="m66.89904 36.006973l-1.2458572 3.312851" fill-rule="evenodd"/><path stroke="#000000" stroke-width="2.0" stroke-miterlimit="800.0" stroke-linecap="butt" d="m66.89904 36.006973l-1.2458572 3.312851" fill-rule="evenodd"/></g></svg>