<svg version="1.1" viewBox="0.0 0.0 138.09448818897638 100.95275590551181" fill="none" stroke="none" stroke-linecap="square" stroke-miterlimit="10" xmlns:xlink="http://www.w3.org/1999/xlink" xmlns="http://www.w3.org/2000/svg"><clipPath id="p.0"><path d="m0 0l138.09448 0l0 100.95276l-138.09448 0l0 -100.95276z" clip-rule="nonzero"/></clipPath><g clip-path="url(#p.0)"><path fill="#000000" fill-opacity="0.0" d="m0 0l138.09448 0l0 100.95276l-138.09448 0z" fill-rule="evenodd"/><path fill="#d8d8d8" fill-opacity="0.498" d="m8.969974 24.134724l0 0c0 -8.91073 7.2235746 -16.134304 16.134304 -16.134304l87.88887 0c4.2790833 0 8.382912 1.6998596 11.408676 4.725628c3.025772 3.0257692 4.7256317 7.129593 4.7256317 11.408676l0 55.699894c0 8.910736 -7.2235794 16.134308 -16.134308 16.134308l-87.88887 0l0 0c-8.910728 0 -16.134304 -7.223572 -16.134304 -16.134308z" fill-rule="evenodd"/><path fill="#000000" fill-opacity="0.0" d="m34.63542 40.383617l11.232777 -10.382189" fill-rule="evenodd"/><path stroke="#7f7f7f" stroke-width="2.0" stroke-miterlimit="800.0" stroke-linecap="butt" d="m34.63542 40.383617l11.232777 -10.382189" fill-rule="evenodd"/><path fill="#000000" fill-opacity="0.0" d="m34.63542 40.383617l11.007622 11.558002" fill-rule="evenodd"/><path stroke="#7f7f7f" stroke-width="2.0" stroke-miterlimit="800.0" stroke-linecap="butt" d="m34.63542 40.383617l11.007622 11.558002" fill-rule="evenodd"/><path fill="#000000" fill-opacity="0.0" d="m34.63542 40.383617l11.157726 33.573246" fill-rule="evenodd"/><path stroke="#7f7f7f" stroke-width="2.0" stroke-miterlimit="800.0" stroke-linecap="butt" d="m34.63542 40.383617l11.157726 33.573246" fill-rule="evenodd"/><path fill="#000000" fill-opacity="0.0" d="m60.895355 29.998009l16.06112 0" fill-rule="evenodd"/><path stroke="#7f7f7f" stroke-width="2.0" stroke-miterlimit="800.0" stroke-linecap="butt" d="m60.895355 29.998009l16.06112 0" fill-rule="evenodd"/><path fill="#000000" fill-opacity="0.0" d="m60.895355 29.998009l16.336311 21.940193" fill-rule="evenodd"/><path stroke="#7f7f7f" stroke-width="2.0" stroke-miterlimit="800.0" stroke-linecap="butt" d="m60.895355 29.998009l16.336311 21.940193" fill-rule="evenodd"/><path fill="#000000" fill-opacity="0.0" d="m60.895355 29.998009l16.461395 43.955437" fill-rule="evenodd"/><path stroke="#7f7f7f" stroke-width="2.0" stroke-miterlimit="800.0" stroke-linecap="butt" d="m60.895355 29.998009l16.461395 43.955437" fill-rule="evenodd"/><path fill="#000000" fill-opacity="0.0" d="m60.687378 51.940536l16.261261 -21.940193" fill-rule="evenodd"/><path stroke="#7f7f7f" stroke-width="2.0" stroke-miterlimit="800.0" stroke-linecap="butt" d="m60.687378 51.940536l16.261261 -21.940193" fill-rule="evenodd"/><path fill="#000000" fill-opacity="0.0" d="m60.687378 51.940536l16.536446 0" fill-rule="evenodd"/><path stroke="#7f7f7f" stroke-width="2.0" stroke-miterlimit="800.0" stroke-linecap="butt" d="m60.687378 51.940536l16.536446 0" fill-rule="evenodd"/><path fill="#000000" fill-opacity="0.0" d="m60.687378 51.940536l16.686554 22.015244" fill-rule="evenodd"/><path stroke="#7f7f7f" stroke-width="2.0" stroke-miterlimit="800.0" stroke-linecap="butt" d="m60.687378 51.940536l16.686554 22.015244" fill-rule="evenodd"/><path fill="#000000" fill-opacity="0.0" d="m60.82639 73.95353l16.53645 0" fill-rule="evenodd"/><path stroke="#7f7f7f" stroke-width="2.0" stroke-miterlimit="800.0" stroke-linecap="butt" d="m60.82639 73.95353l16.53645 0" fill-rule="evenodd"/><path fill="#000000" fill-opacity="0.0" d="m60.82639 73.95353l16.386349 -22.015244" fill-rule="evenodd"/><path stroke="#7f7f7f" stroke-width="2.0" stroke-miterlimit="800.0" stroke-linecap="butt" d="m60.82639 73.95353l16.386349 -22.015244" fill-rule="evenodd"/><path fill="#000000" fill-opacity="0.0" d="m60.82639 73.95353l16.136173 -43.955437" fill-rule="evenodd"/><path stroke="#7f7f7f" stroke-width="2.0" stroke-miterlimit="800.0" stroke-linecap="butt" d="m60.82639 73.95353l16.136173 -43.955437" fill-rule="evenodd"/><path fill="#000000" fill-opacity="0.0" d="m91.99464 29.998009l11.482956 10.382191" fill-rule="evenodd"/><path stroke="#7f7f7f" stroke-width="2.0" stroke-miterlimit="800.0" stroke-linecap="butt" d="m91.99464 29.998009l11.482956 10.382191" fill-rule="evenodd"/><path fill="#000000" fill-opacity="0.0" d="m92.26066 51.940536l11.207756 -11.558002" fill-rule="evenodd"/><path stroke="#7f7f7f" stroke-width="2.0" stroke-miterlimit="800.0" stroke-linecap="butt" d="m92.26066 51.940536l11.207756 -11.558002" fill-rule="evenodd"/><path fill="#000000" fill-opacity="0.0" d="m92.39983 73.95353l11.082672 -33.573246" fill-rule="evenodd"/><path stroke="#7f7f7f" stroke-width="2.0" stroke-miterlimit="800.0" stroke-linecap="butt" d="m92.39983 73.95353l11.082672 -33.573246" fill-rule="evenodd"/><path fill="#ffffff" fill-opacity="0.498" d="m19.60001 40.383617l0 0c0 -4.1519127 3.3657913 -7.517704 7.517704 -7.517704l0 0c1.9938202 0 3.9059772 0.7920418 5.3158226 2.2018814c1.4098434 1.4098434 2.2018852 3.3220024 2.2018852 5.3158226l0 0c0 4.1519127 -3.3657932 7.517704 -7.517708 7.517704l0 0c-4.1519127 0 -7.517704 -3.3657913 -7.517704 -7.517704z" fill-rule="evenodd"/><path stroke="#595959" stroke-width="2.0" stroke-miterlimit="800.0" stroke-linecap="butt" d="m19.60001 40.383617l0 0c0 -4.1519127 3.3657913 -7.517704 7.517704 -7.517704l0 0c1.9938202 0 3.9059772 0.7920418 5.3158226 2.2018814c1.4098434 1.4098434 2.2018852 3.3220024 2.2018852 5.3158226l0 0c0 4.1519127 -3.3657932 7.517704 -7.517708 7.517704l0 0c-4.1519127 0 -7.517704 -3.3657913 -7.517704 -7.517704z" fill-rule="evenodd"/><path fill="#d8d8d8" d="m45.859943 29.998009l0 0c0 -4.1519127 3.3657913 -7.517706 7.517704 -7.517706l0 0c1.9938202 0 3.9059792 0.7920418 5.3158226 2.2018852c1.4098434 1.4098434 2.2018852 3.3220024 2.2018852 5.3158207l0 0c0 4.1519165 -3.3657913 7.517708 -7.517708 7.517708l0 0c-4.1519127 0 -7.517704 -3.3657913 -7.517704 -7.517708z" fill-rule="evenodd"/><path stroke="#595959" stroke-width="2.0" stroke-miterlimit="800.0" stroke-linecap="butt" d="m45.859943 29.998009l0 0c0 -4.1519127 3.3657913 -7.517706 7.517704 -7.517706l0 0c1.9938202 0 3.9059792 0.7920418 5.3158226 2.2018852c1.4098434 1.4098434 2.2018852 3.3220024 2.2018852 5.3158207l0 0c0 4.1519165 -3.3657913 7.517708 -7.517708 7.517708l0 0c-4.1519127 0 -7.517704 -3.3657913 -7.517704 -7.517708z" fill-rule="evenodd"/><path fill="#f2f2f2" d="m76.95923 29.998009l0 0c0 -4.1519127 3.3657913 -7.517706 7.5177 -7.517706l0 0c1.9938202 0 3.905983 0.7920418 5.3158264 2.2018852c1.4098434 1.4098434 2.2018814 3.3220024 2.2018814 5.3158207l0 0c0 4.1519165 -3.3657913 7.517708 -7.517708 7.517708l0 0c-4.151909 0 -7.5177 -3.3657913 -7.5177 -7.517708z" fill-rule="evenodd"/><path stroke="#7f7f7f" stroke-width="2.0" stroke-miterlimit="800.0" stroke-linecap="butt" d="m76.95923 29.998009l0 0c0 -4.1519127 3.3657913 -7.517706 7.5177 -7.517706l0 0c1.9938202 0 3.905983 0.7920418 5.3158264 2.2018852c1.4098434 1.4098434 2.2018814 3.3220024 2.2018814 5.3158207l0 0c0 4.1519165 -3.3657913 7.517708 -7.517708 7.517708l0 0c-4.151909 0 -7.5177 -3.3657913 -7.5177 -7.517708z" fill-rule="evenodd"/><path fill="#d8d8d8" d="m45.651966 51.940536l0 0c0 -4.1519127 3.3657913 -7.517704 7.517704 -7.517704l0 0c1.9938202 0 3.9059792 0.7920418 5.3158226 2.2018814c1.4098434 1.4098434 2.2018852 3.3220024 2.2018852 5.3158226l0 0c0 4.1519127 -3.3657951 7.517704 -7.517708 7.517704l0 0c-4.1519127 0 -7.517704 -3.3657913 -7.517704 -7.517704z" fill-rule="evenodd"/><path stroke="#595959" stroke-width="2.0" stroke-miterlimit="800.0" stroke-linecap="butt" d="m45.651966 51.940536l0 0c0 -4.1519127 3.3657913 -7.517704 7.517704 -7.517704l0 0c1.9938202 0 3.9059792 0.7920418 5.3158226 2.2018814c1.4098434 1.4098434 2.2018852 3.3220024 2.2018852 5.3158226l0 0c0 4.1519127 -3.3657951 7.517704 -7.517708 7.517704l0 0c-4.1519127 0 -7.517704 -3.3657913 -7.517704 -7.517704z" fill-rule="evenodd"/><path fill="#f2f2f2" d="m77.22524 51.940536l0 0c0 -4.1519127 3.3657913 -7.517704 7.517708 -7.517704l0 0c1.9938202 0 3.9059753 0.7920418 5.315819 2.2018814c1.4098434 1.4098434 2.201889 3.3220024 2.201889 5.3158226l0 0c0 4.1519127 -3.3657913 7.517704 -7.517708 7.517704l0 0c-4.1519165 0 -7.517708 -3.3657913 -7.517708 -7.517704z" fill-rule="evenodd"/><path stroke="#7f7f7f" stroke-width="2.0" stroke-miterlimit="800.0" stroke-linecap="butt" d="m77.22524 51.940536l0 0c0 -4.1519127 3.3657913 -7.517704 7.517708 -7.517704l0 0c1.9938202 0 3.9059753 0.7920418 5.315819 2.2018814c1.4098434 1.4098434 2.201889 3.3220024 2.201889 5.3158226l0 0c0 4.1519127 -3.3657913 7.517704 -7.517708 7.517704l0 0c-4.1519165 0 -7.517708 -3.3657913 -7.517708 -7.517704z" fill-rule="evenodd"/><path fill="#d8d8d8" d="m45.790977 73.95353l0 0c0 -4.1519165 3.3657913 -7.517708 7.517708 -7.517708l0 0c1.9938164 0 3.9059753 0.7920456 5.315819 2.201889c1.4098434 1.4098434 2.2018852 3.3219986 2.2018852 5.315819l0 0c0 4.1519165 -3.3657913 7.517708 -7.517704 7.517708l0 0c-4.1519165 0 -7.517708 -3.3657913 -7.517708 -7.517708z" fill-rule="evenodd"/><path stroke="#595959" stroke-width="2.0" stroke-miterlimit="800.0" stroke-linecap="butt" d="m45.790977 73.95353l0 0c0 -4.1519165 3.3657913 -7.517708 7.517708 -7.517708l0 0c1.9938164 0 3.9059753 0.7920456 5.315819 2.201889c1.4098434 1.4098434 2.2018852 3.3219986 2.2018852 5.315819l0 0c0 4.1519165 -3.3657913 7.517708 -7.517704 7.517708l0 0c-4.1519165 0 -7.517708 -3.3657913 -7.517708 -7.517708z" fill-rule="evenodd"/><path fill="#f2f2f2" d="m77.364426 73.95353l0 0c0 -4.1519165 3.3657913 -7.517708 7.5177 -7.517708l0 0c1.9938202 0 3.905983 0.7920456 5.3158264 2.201889c1.4098434 1.4098434 2.2018814 3.3219986 2.2018814 5.315819l0 0c0 4.1519165 -3.3657913 7.517708 -7.517708 7.517708l0 0c-4.151909 0 -7.5177 -3.3657913 -7.5177 -7.517708z" fill-rule="evenodd"/><path stroke="#7f7f7f" stroke-width="2.0" stroke-miterlimit="800.0" stroke-linecap="butt" d="m77.364426 73.95353l0 0c0 -4.1519165 3.3657913 -7.517708 7.5177 -7.517708l0 0c1.9938202 0 3.905983 0.7920456 5.3158264 2.201889c1.4098434 1.4098434 2.2018814 3.3219986 2.2018814 5.315819l0 0c0 4.1519165 -3.3657913 7.517708 -7.517708 7.517708l0 0c-4.151909 0 -7.5177 -3.3657913 -7.5177 -7.517708z" fill-rule="evenodd"/><path fill="#ffffff" d="m103.47 40.383617l0 0c0 -4.1519127 3.3657913 -7.517704 7.517708 -7.517704l0 0c1.9938126 0 3.9059753 0.7920418 5.315819 2.2018814c1.4098434 1.4098434 2.2018814 3.3220024 2.2018814 5.3158226l0 0c0 4.1519127 -3.3657913 7.517704 -7.5177 7.517704l0 0c-4.1519165 0 -7.517708 -3.3657913 -7.517708 -7.517704z" fill-rule="evenodd"/><path stroke="#44a6bd" stroke-width="2.0" stroke-miterlimit="800.0" stroke-linecap="butt" d="m103.47 40.383617l0 0c0 -4.1519127 3.3657913 -7.517704 7.517708 -7.517704l0 0c1.9938126 0 3.9059753 0.7920418 5.315819 2.2018814c1.4098434 1.4098434 2.2018814 3.3220024 2.2018814 5.3158226l0 0c0 4.1519127 -3.3657913 7.517704 -7.5177 7.517704l0 0c-4.1519165 0 -7.517708 -3.3657913 -7.517708 -7.517704z" fill-rule="evenodd"/><path fill="#000000" fill-opacity="0.0" d="m92.26066 51.940536l11.207756 11.382881" fill-rule="evenodd"/><path stroke="#7f7f7f" stroke-width="2.0" stroke-miterlimit="800.0" stroke-linecap="butt" d="m92.26066 51.940536l11.207756 11.382881" fill-rule="evenodd"/><path fill="#000000" fill-opacity="0.0" d="m92.39983 73.95353l11.082672 -10.632362" fill-rule="evenodd"/><path stroke="#7f7f7f" stroke-width="2.0" stroke-miterlimit="800.0" stroke-linecap="butt" d="m92.39983 73.95353l11.082672 -10.632362" fill-rule="evenodd"/><path fill="#000000" fill-opacity="0.0" d="m91.99464 29.998009l11.482956 33.323074" fill-rule="evenodd"/><path stroke="#7f7f7f" stroke-width="2.0" stroke-miterlimit="800.0" stroke-linecap="butt" d="m91.99464 29.998009l11.482956 33.323074" fill-rule="evenodd"/><path fill="#ffffff" d="m103.47 63.31858l0 0c0 -4.1519127 3.3657913 -7.517704 7.517708 -7.517704l0 0c1.9938126 0 3.9059753 0.7920418 5.315819 2.2018852c1.4098434 1.4098434 2.2018814 3.3219986 2.2018814 5.315819l0 0c0 4.1519165 -3.3657913 7.517708 -7.5177 7.517708l0 0c-4.1519165 0 -7.517708 -3.3657913 -7.517708 -7.517708z" fill-rule="evenodd"/><path stroke="#43a6be" stroke-width="2.0" stroke-miterlimit="800.0" stroke-linecap="butt" d="m103.47 63.31858l0 0c0 -4.1519127 3.3657913 -7.517704 7.517708 -7.517704l0 0c1.9938126 0 3.9059753 0.7920418 5.315819 2.2018852c1.4098434 1.4098434 2.2018814 3.3219986 2.2018814 5.315819l0 0c0 4.1519165 -3.3657913 7.517708 -7.5177 7.517708l0 0c-4.1519165 0 -7.517708 -3.3657913 -7.517708 -7.517708z" fill-rule="evenodd"/><path fill="#000000" fill-opacity="0.0" d="m34.535603 63.0534l11.332848 -33.047882" fill-rule="evenodd"/><path stroke="#7f7f7f" stroke-width="2.0" stroke-miterlimit="800.0" stroke-linecap="butt" d="m34.535603 63.0534l11.332848 -33.047882" fill-rule="evenodd"/><path fill="#000000" fill-opacity="0.0" d="m34.535603 63.0534l11.107689 -11.107693" fill-rule="evenodd"/><path stroke="#7f7f7f" stroke-width="2.0" stroke-miterlimit="800.0" stroke-linecap="butt" d="m34.535603 63.0534l11.107689 -11.107693" fill-rule="evenodd"/><path fill="#000000" fill-opacity="0.0" d="m34.535603 63.0534l11.257793 10.907555" fill-rule="evenodd"/><path stroke="#7f7f7f" stroke-width="2.0" stroke-miterlimit="800.0" stroke-linecap="butt" d="m34.535603 63.0534l11.257793 10.907555" fill-rule="evenodd"/><path fill="#ffffff" fill-opacity="0.498" d="m19.50019 63.0534l0 0c0 -4.1519127 3.3657913 -7.517704 7.517704 -7.517704l0 0c1.9938202 0 3.9059772 0.7920418 5.3158226 2.2018814c1.4098434 1.4098434 2.2018852 3.3220024 2.2018852 5.3158226l0 0c0 4.1519165 -3.3657932 7.517708 -7.517708 7.517708l0 0c-4.1519127 0 -7.517704 -3.3657913 -7.517704 -7.517708z" fill-rule="evenodd"/><path stroke="#595959" stroke-width="2.0" stroke-miterlimit="800.0" stroke-linecap="butt" d="m19.50019 63.0534l0 0c0 -4.1519127 3.3657913 -7.517704 7.517704 -7.517704l0 0c1.9938202 0 3.9059772 0.7920418 5.3158226 2.2018814c1.4098434 1.4098434 2.2018852 3.3220024 2.2018852 5.3158226l0 0c0 4.1519165 -3.3657932 7.517708 -7.517708 7.517708l0 0c-4.1519127 0 -7.517704 -3.3657913 -7.517704 -7.517708z" fill-rule="evenodd"/><path fill="#000000" fill-opacity="0.0" d="m2.8902888 95.94698l132.31496 0l0 32.314964l-132.31496 0z" fill-rule="evenodd"/></g></svg>